<svg width="252" height="77" viewBox="0 0 252 77" fill="none" xmlns="http://www.w3.org/2000/svg">
<g filter="url(#filter0_dd_246_170)">
<mask id="path-1-inside-1_246_170" fill="white">
<path d="M57.7816 55.65C58.015 55.65 58.1316 55.8667 58.1316 56.3C58.1316 56.7667 58.015 57 57.7816 57H48.2816C47.1483 54.8667 45.4983 51.9167 43.3316 48.15C41.165 44.35 39.3816 41.45 37.9816 39.45C37.6483 39.4833 37.1483 39.5 36.4816 39.5H33.2316V52.2C33.2316 53.5 33.5983 54.4 34.3316 54.9C35.065 55.4 36.115 55.65 37.4816 55.65H38.2316C38.465 55.65 38.5816 55.8667 38.5816 56.3C38.5816 56.7667 38.465 57 38.2316 57H23.3816C23.1483 57 23.0316 56.7667 23.0316 56.3C23.0316 55.8667 23.1483 55.65 23.3816 55.65H24.1316C25.565 55.65 26.6316 55.4 27.3316 54.9C28.065 54.4 28.4316 53.5 28.4316 52.2V25.3C28.4316 24 28.0483 23.1 27.2816 22.6C26.5483 22.1 25.4983 21.85 24.1316 21.85H23.3816C23.1483 21.85 23.0316 21.6333 23.0316 21.2C23.0316 20.9667 23.0483 20.8 23.0816 20.7C23.1483 20.5667 23.2483 20.5 23.3816 20.5L35.1316 20.45H40.1316C42.2983 20.4833 44.315 20.8833 46.1816 21.65C48.0483 22.4167 49.5483 23.5167 50.6816 24.95C51.815 26.35 52.3816 27.9833 52.3816 29.85C52.3816 32.1167 51.4983 33.9833 49.7316 35.45C47.965 36.8833 45.715 37.95 42.9816 38.65C43.7483 39.65 45.3816 42.1667 47.8816 46.2C50.1483 49.8333 51.565 52.0667 52.1316 52.9C52.765 53.8 53.465 54.4833 54.2316 54.95C55.0316 55.4167 56.215 55.65 57.7816 55.65ZM34.7316 38.1C39.365 38.1 42.5483 37.2833 44.2816 35.65C46.0483 34.0167 46.9316 32 46.9316 29.6C46.9316 27.0333 46.015 25.1167 44.1816 23.85C42.3816 22.5833 40.1316 21.95 37.4316 21.95C36.165 21.95 35.1483 22.1667 34.3816 22.6C33.615 23 33.2316 23.8333 33.2316 25.1V38.1H34.7316ZM95.2582 55.65C95.4915 55.65 95.6082 55.8667 95.6082 56.3C95.6082 56.7667 95.4915 57 95.2582 57H85.7582C84.6249 54.8667 82.9749 51.9167 80.8082 48.15C78.6415 44.35 76.8582 41.45 75.4582 39.45C75.1249 39.4833 74.6249 39.5 73.9582 39.5H70.7082V52.2C70.7082 53.5 71.0749 54.4 71.8082 54.9C72.5415 55.4 73.5915 55.65 74.9582 55.65H75.7082C75.9415 55.65 76.0582 55.8667 76.0582 56.3C76.0582 56.7667 75.9415 57 75.7082 57H60.8582C60.6249 57 60.5082 56.7667 60.5082 56.3C60.5082 55.8667 60.6249 55.65 60.8582 55.65H61.6082C63.0415 55.65 64.1082 55.4 64.8082 54.9C65.5415 54.4 65.9082 53.5 65.9082 52.2V25.3C65.9082 24 65.5249 23.1 64.7582 22.6C64.0249 22.1 62.9749 21.85 61.6082 21.85H60.8582C60.6249 21.85 60.5082 21.6333 60.5082 21.2C60.5082 20.9667 60.5249 20.8 60.5582 20.7C60.6249 20.5667 60.7249 20.5 60.8582 20.5L72.6082 20.45H77.6082C79.7749 20.4833 81.7915 20.8833 83.6582 21.65C85.5249 22.4167 87.0249 23.5167 88.1582 24.95C89.2915 26.35 89.8582 27.9833 89.8582 29.85C89.8582 32.1167 88.9749 33.9833 87.2082 35.45C85.4415 36.8833 83.1915 37.95 80.4582 38.65C81.2249 39.65 82.8582 42.1667 85.3582 46.2C87.6249 49.8333 89.0415 52.0667 89.6082 52.9C90.2415 53.8 90.9415 54.4833 91.7082 54.95C92.5082 55.4167 93.6915 55.65 95.2582 55.65ZM72.2082 38.1C76.8415 38.1 80.0249 37.2833 81.7582 35.65C83.5249 34.0167 84.4082 32 84.4082 29.6C84.4082 27.0333 83.4915 25.1167 81.6582 23.85C79.8582 22.5833 77.6082 21.95 74.9082 21.95C73.6415 21.95 72.6249 22.1667 71.8582 22.6C71.0915 23 70.7082 23.8333 70.7082 25.1V38.1H72.2082ZM107.035 57C106.801 57 106.685 56.7667 106.685 56.3C106.685 55.8667 106.801 55.65 107.035 55.65H107.735C109.168 55.65 110.235 55.4 110.935 54.9C111.635 54.3667 112.001 53.4667 112.035 52.2V44.8C105.835 32.6333 102.501 26.1167 102.035 25.25C101.301 23.8833 100.585 22.9833 99.8848 22.55C99.1848 22.0833 98.4681 21.85 97.7348 21.85H96.9848C96.7514 21.85 96.6348 21.6333 96.6348 21.2C96.6348 20.9667 96.6514 20.8 96.6848 20.7C96.7514 20.5667 96.8514 20.5 96.9848 20.5H111.235C111.368 20.5 111.451 20.5667 111.485 20.7C111.551 20.8 111.585 20.9667 111.585 21.2C111.585 21.6333 111.468 21.85 111.235 21.85H110.485C108.018 21.85 106.785 22.5167 106.785 23.85C106.785 24.2167 106.918 24.7 107.185 25.3C107.551 26.1667 110.401 31.7 115.735 41.9L123.785 26.2C124.051 25.5667 124.185 25.05 124.185 24.65C124.185 23.75 123.768 23.0667 122.935 22.6C122.101 22.1 121.301 21.85 120.535 21.85H119.785C119.551 21.85 119.435 21.6333 119.435 21.2C119.435 20.7333 119.551 20.5 119.785 20.5H132.385C132.551 20.5 132.651 20.5667 132.685 20.7C132.751 20.8 132.785 20.9667 132.785 21.2C132.785 21.6333 132.651 21.85 132.385 21.85H131.685C130.785 21.85 129.818 22.2333 128.785 23C127.751 23.7333 126.851 24.7667 126.085 26.1L116.885 43.55V52.2C116.885 53.5 117.251 54.4 117.985 54.9C118.751 55.4 119.818 55.65 121.185 55.65H121.885C122.151 55.65 122.285 55.8667 122.285 56.3C122.285 56.7667 122.151 57 121.885 57H107.035ZM135.225 57C134.959 57 134.825 56.7667 134.825 56.3C134.825 55.8667 134.959 55.65 135.225 55.65H135.875C136.942 55.65 137.925 55.2667 138.825 54.5C139.725 53.7 140.175 52.7 140.175 51.5V24.9C140.175 23.7667 139.809 22.9833 139.075 22.55C138.375 22.0833 137.309 21.85 135.875 21.85H135.225C134.992 21.85 134.875 21.6333 134.875 21.2C134.875 20.7333 134.992 20.5 135.225 20.5H145.375L157.175 48.95L169.225 20.5H179.025C179.159 20.5 179.242 20.5667 179.275 20.7C179.342 20.8 179.375 20.9667 179.375 21.2C179.375 21.6333 179.259 21.85 179.025 21.85H178.325C176.859 21.85 175.775 22.1 175.075 22.6C174.409 23.1 174.075 23.9833 174.075 25.25V52.2C174.075 53.5 174.425 54.4 175.125 54.9C175.825 55.4 176.892 55.65 178.325 55.65H179.025C179.259 55.65 179.375 55.8667 179.375 56.3C179.375 56.7667 179.259 57 179.025 57H164.275C164.075 57 163.975 56.7667 163.975 56.3C163.975 55.8667 164.075 55.65 164.275 55.65H165.075C166.509 55.65 167.575 55.4 168.275 54.9C168.975 54.4 169.325 53.5 169.325 52.2V25.2L156.025 57H155.225L142.175 25.45V51.5C142.175 52.7 142.625 53.7 143.525 54.5C144.459 55.2667 145.442 55.65 146.475 55.65H147.175C147.375 55.65 147.475 55.8667 147.475 56.3C147.475 56.7667 147.375 57 147.175 57H135.225ZM184.372 57C184.105 57 183.972 56.7667 183.972 56.3C183.972 55.8667 184.105 55.65 184.372 55.65H185.022C186.089 55.65 187.072 55.2667 187.972 54.5C188.872 53.7 189.322 52.7 189.322 51.5V24.9C189.322 23.7667 188.955 22.9833 188.222 22.55C187.522 22.0833 186.455 21.85 185.022 21.85H184.372C184.139 21.85 184.022 21.6333 184.022 21.2C184.022 20.7333 184.139 20.5 184.372 20.5H194.522L206.322 48.95L218.372 20.5H228.172C228.305 20.5 228.389 20.5667 228.422 20.7C228.489 20.8 228.522 20.9667 228.522 21.2C228.522 21.6333 228.405 21.85 228.172 21.85H227.472C226.005 21.85 224.922 22.1 224.222 22.6C223.555 23.1 223.222 23.9833 223.222 25.25V52.2C223.222 53.5 223.572 54.4 224.272 54.9C224.972 55.4 226.039 55.65 227.472 55.65H228.172C228.405 55.65 228.522 55.8667 228.522 56.3C228.522 56.7667 228.405 57 228.172 57H213.422C213.222 57 213.122 56.7667 213.122 56.3C213.122 55.8667 213.222 55.65 213.422 55.65H214.222C215.655 55.65 216.722 55.4 217.422 54.9C218.122 54.4 218.472 53.5 218.472 52.2V25.2L205.172 57H204.372L191.322 25.45V51.5C191.322 52.7 191.772 53.7 192.672 54.5C193.605 55.2667 194.589 55.65 195.622 55.65H196.322C196.522 55.65 196.622 55.8667 196.622 56.3C196.622 56.7667 196.522 57 196.322 57H184.372Z"/>
</mask>
<path d="M57.7816 55.65C58.015 55.65 58.1316 55.8667 58.1316 56.3C58.1316 56.7667 58.015 57 57.7816 57H48.2816C47.1483 54.8667 45.4983 51.9167 43.3316 48.15C41.165 44.35 39.3816 41.45 37.9816 39.45C37.6483 39.4833 37.1483 39.5 36.4816 39.5H33.2316V52.2C33.2316 53.5 33.5983 54.4 34.3316 54.9C35.065 55.4 36.115 55.65 37.4816 55.65H38.2316C38.465 55.65 38.5816 55.8667 38.5816 56.3C38.5816 56.7667 38.465 57 38.2316 57H23.3816C23.1483 57 23.0316 56.7667 23.0316 56.3C23.0316 55.8667 23.1483 55.65 23.3816 55.65H24.1316C25.565 55.65 26.6316 55.4 27.3316 54.9C28.065 54.4 28.4316 53.5 28.4316 52.2V25.3C28.4316 24 28.0483 23.1 27.2816 22.6C26.5483 22.1 25.4983 21.85 24.1316 21.85H23.3816C23.1483 21.85 23.0316 21.6333 23.0316 21.2C23.0316 20.9667 23.0483 20.8 23.0816 20.7C23.1483 20.5667 23.2483 20.5 23.3816 20.5L35.1316 20.45H40.1316C42.2983 20.4833 44.315 20.8833 46.1816 21.65C48.0483 22.4167 49.5483 23.5167 50.6816 24.95C51.815 26.35 52.3816 27.9833 52.3816 29.85C52.3816 32.1167 51.4983 33.9833 49.7316 35.45C47.965 36.8833 45.715 37.95 42.9816 38.65C43.7483 39.65 45.3816 42.1667 47.8816 46.2C50.1483 49.8333 51.565 52.0667 52.1316 52.9C52.765 53.8 53.465 54.4833 54.2316 54.95C55.0316 55.4167 56.215 55.65 57.7816 55.65ZM34.7316 38.1C39.365 38.1 42.5483 37.2833 44.2816 35.65C46.0483 34.0167 46.9316 32 46.9316 29.6C46.9316 27.0333 46.015 25.1167 44.1816 23.85C42.3816 22.5833 40.1316 21.95 37.4316 21.95C36.165 21.95 35.1483 22.1667 34.3816 22.6C33.615 23 33.2316 23.8333 33.2316 25.1V38.1H34.7316ZM95.2582 55.65C95.4915 55.65 95.6082 55.8667 95.6082 56.3C95.6082 56.7667 95.4915 57 95.2582 57H85.7582C84.6249 54.8667 82.9749 51.9167 80.8082 48.15C78.6415 44.35 76.8582 41.45 75.4582 39.45C75.1249 39.4833 74.6249 39.5 73.9582 39.5H70.7082V52.2C70.7082 53.5 71.0749 54.4 71.8082 54.9C72.5415 55.4 73.5915 55.65 74.9582 55.65H75.7082C75.9415 55.65 76.0582 55.8667 76.0582 56.3C76.0582 56.7667 75.9415 57 75.7082 57H60.8582C60.6249 57 60.5082 56.7667 60.5082 56.3C60.5082 55.8667 60.6249 55.65 60.8582 55.65H61.6082C63.0415 55.65 64.1082 55.4 64.8082 54.9C65.5415 54.4 65.9082 53.5 65.9082 52.2V25.3C65.9082 24 65.5249 23.1 64.7582 22.6C64.0249 22.1 62.9749 21.85 61.6082 21.85H60.8582C60.6249 21.85 60.5082 21.6333 60.5082 21.2C60.5082 20.9667 60.5249 20.8 60.5582 20.7C60.6249 20.5667 60.7249 20.5 60.8582 20.5L72.6082 20.45H77.6082C79.7749 20.4833 81.7915 20.8833 83.6582 21.65C85.5249 22.4167 87.0249 23.5167 88.1582 24.95C89.2915 26.35 89.8582 27.9833 89.8582 29.85C89.8582 32.1167 88.9749 33.9833 87.2082 35.45C85.4415 36.8833 83.1915 37.95 80.4582 38.65C81.2249 39.65 82.8582 42.1667 85.3582 46.2C87.6249 49.8333 89.0415 52.0667 89.6082 52.9C90.2415 53.8 90.9415 54.4833 91.7082 54.95C92.5082 55.4167 93.6915 55.65 95.2582 55.65ZM72.2082 38.1C76.8415 38.1 80.0249 37.2833 81.7582 35.65C83.5249 34.0167 84.4082 32 84.4082 29.6C84.4082 27.0333 83.4915 25.1167 81.6582 23.85C79.8582 22.5833 77.6082 21.95 74.9082 21.95C73.6415 21.95 72.6249 22.1667 71.8582 22.6C71.0915 23 70.7082 23.8333 70.7082 25.1V38.1H72.2082ZM107.035 57C106.801 57 106.685 56.7667 106.685 56.3C106.685 55.8667 106.801 55.65 107.035 55.65H107.735C109.168 55.65 110.235 55.4 110.935 54.9C111.635 54.3667 112.001 53.4667 112.035 52.2V44.8C105.835 32.6333 102.501 26.1167 102.035 25.25C101.301 23.8833 100.585 22.9833 99.8848 22.55C99.1848 22.0833 98.4681 21.85 97.7348 21.85H96.9848C96.7514 21.85 96.6348 21.6333 96.6348 21.2C96.6348 20.9667 96.6514 20.8 96.6848 20.7C96.7514 20.5667 96.8514 20.5 96.9848 20.5H111.235C111.368 20.5 111.451 20.5667 111.485 20.7C111.551 20.8 111.585 20.9667 111.585 21.2C111.585 21.6333 111.468 21.85 111.235 21.85H110.485C108.018 21.85 106.785 22.5167 106.785 23.85C106.785 24.2167 106.918 24.7 107.185 25.3C107.551 26.1667 110.401 31.7 115.735 41.9L123.785 26.2C124.051 25.5667 124.185 25.05 124.185 24.65C124.185 23.75 123.768 23.0667 122.935 22.6C122.101 22.1 121.301 21.85 120.535 21.85H119.785C119.551 21.85 119.435 21.6333 119.435 21.2C119.435 20.7333 119.551 20.5 119.785 20.5H132.385C132.551 20.5 132.651 20.5667 132.685 20.7C132.751 20.8 132.785 20.9667 132.785 21.2C132.785 21.6333 132.651 21.85 132.385 21.85H131.685C130.785 21.85 129.818 22.2333 128.785 23C127.751 23.7333 126.851 24.7667 126.085 26.1L116.885 43.55V52.2C116.885 53.5 117.251 54.4 117.985 54.9C118.751 55.4 119.818 55.65 121.185 55.65H121.885C122.151 55.65 122.285 55.8667 122.285 56.3C122.285 56.7667 122.151 57 121.885 57H107.035ZM135.225 57C134.959 57 134.825 56.7667 134.825 56.3C134.825 55.8667 134.959 55.65 135.225 55.65H135.875C136.942 55.65 137.925 55.2667 138.825 54.5C139.725 53.7 140.175 52.7 140.175 51.5V24.9C140.175 23.7667 139.809 22.9833 139.075 22.55C138.375 22.0833 137.309 21.85 135.875 21.85H135.225C134.992 21.85 134.875 21.6333 134.875 21.2C134.875 20.7333 134.992 20.5 135.225 20.5H145.375L157.175 48.95L169.225 20.5H179.025C179.159 20.5 179.242 20.5667 179.275 20.7C179.342 20.8 179.375 20.9667 179.375 21.2C179.375 21.6333 179.259 21.85 179.025 21.85H178.325C176.859 21.85 175.775 22.1 175.075 22.6C174.409 23.1 174.075 23.9833 174.075 25.25V52.2C174.075 53.5 174.425 54.4 175.125 54.9C175.825 55.4 176.892 55.65 178.325 55.65H179.025C179.259 55.65 179.375 55.8667 179.375 56.3C179.375 56.7667 179.259 57 179.025 57H164.275C164.075 57 163.975 56.7667 163.975 56.3C163.975 55.8667 164.075 55.65 164.275 55.65H165.075C166.509 55.65 167.575 55.4 168.275 54.9C168.975 54.4 169.325 53.5 169.325 52.2V25.2L156.025 57H155.225L142.175 25.45V51.5C142.175 52.7 142.625 53.7 143.525 54.5C144.459 55.2667 145.442 55.65 146.475 55.65H147.175C147.375 55.65 147.475 55.8667 147.475 56.3C147.475 56.7667 147.375 57 147.175 57H135.225ZM184.372 57C184.105 57 183.972 56.7667 183.972 56.3C183.972 55.8667 184.105 55.65 184.372 55.65H185.022C186.089 55.65 187.072 55.2667 187.972 54.5C188.872 53.7 189.322 52.7 189.322 51.5V24.9C189.322 23.7667 188.955 22.9833 188.222 22.55C187.522 22.0833 186.455 21.85 185.022 21.85H184.372C184.139 21.85 184.022 21.6333 184.022 21.2C184.022 20.7333 184.139 20.5 184.372 20.5H194.522L206.322 48.95L218.372 20.5H228.172C228.305 20.5 228.389 20.5667 228.422 20.7C228.489 20.8 228.522 20.9667 228.522 21.2C228.522 21.6333 228.405 21.85 228.172 21.85H227.472C226.005 21.85 224.922 22.1 224.222 22.6C223.555 23.1 223.222 23.9833 223.222 25.25V52.2C223.222 53.5 223.572 54.4 224.272 54.9C224.972 55.4 226.039 55.65 227.472 55.65H228.172C228.405 55.65 228.522 55.8667 228.522 56.3C228.522 56.7667 228.405 57 228.172 57H213.422C213.222 57 213.122 56.7667 213.122 56.3C213.122 55.8667 213.222 55.65 213.422 55.65H214.222C215.655 55.65 216.722 55.4 217.422 54.9C218.122 54.4 218.472 53.5 218.472 52.2V25.2L205.172 57H204.372L191.322 25.45V51.5C191.322 52.7 191.772 53.7 192.672 54.5C193.605 55.2667 194.589 55.65 195.622 55.65H196.322C196.522 55.65 196.622 55.8667 196.622 56.3C196.622 56.7667 196.522 57 196.322 57H184.372Z" fill="#F9F9FA"/>
<path d="M48.2816 57L47.3985 57.4692C47.5721 57.7958 47.9117 58 48.2816 58V57ZM43.3316 48.15L42.4629 48.6453L42.4648 48.6486L43.3316 48.15ZM37.9816 39.45L38.8009 38.8765C38.5934 38.5802 38.2421 38.419 37.8821 38.455L37.9816 39.45ZM33.2316 39.5V38.5C32.6794 38.5 32.2316 38.9477 32.2316 39.5H33.2316ZM34.3316 54.9L34.895 54.0738L34.895 54.0738L34.3316 54.9ZM27.3316 54.9L26.7683 54.0738C26.7623 54.0779 26.7563 54.082 26.7504 54.0863L27.3316 54.9ZM27.2816 22.6L26.7183 23.4262C26.724 23.4301 26.7296 23.4339 26.7354 23.4376L27.2816 22.6ZM23.0816 20.7L22.1872 20.2528C22.1661 20.2951 22.1479 20.3389 22.133 20.3838L23.0816 20.7ZM23.3816 20.5L23.3816 21.5L23.3859 21.5L23.3816 20.5ZM35.1316 20.45L35.1316 19.45L35.1274 19.45L35.1316 20.45ZM40.1316 20.45L40.147 19.4501C40.1419 19.45 40.1368 19.45 40.1316 19.45V20.45ZM46.1816 21.65L46.5616 20.725L46.5616 20.725L46.1816 21.65ZM50.6816 24.95L49.8972 25.5703L49.9044 25.5792L50.6816 24.95ZM49.7316 35.45L50.3617 36.2266L50.3704 36.2194L49.7316 35.45ZM42.9816 38.65L42.7336 37.6813C42.4082 37.7646 42.1464 38.0057 42.0366 38.3231C41.9268 38.6405 41.9837 38.9919 42.188 39.2584L42.9816 38.65ZM47.8816 46.2L47.0317 46.7268L47.0332 46.7293L47.8816 46.2ZM52.1316 52.9L51.3047 53.4623C51.3077 53.4667 51.3108 53.4711 51.3138 53.4755L52.1316 52.9ZM54.2316 54.95L53.7117 55.8042C53.717 55.8074 53.7224 55.8106 53.7278 55.8138L54.2316 54.95ZM44.2816 35.65L43.6028 34.9157L43.5958 34.9222L44.2816 35.65ZM44.1816 23.85L43.6061 24.6678L43.6132 24.6727L44.1816 23.85ZM34.3816 22.6L34.8442 23.4866C34.8541 23.4814 34.864 23.4761 34.8737 23.4706L34.3816 22.6ZM33.2316 38.1H32.2316C32.2316 38.6523 32.6794 39.1 33.2316 39.1V38.1ZM57.7816 56.65C57.6795 56.65 57.5431 56.6243 57.4084 56.5409C57.2765 56.4592 57.2013 56.3564 57.1637 56.2866C57.1289 56.2221 57.1236 56.1819 57.1255 56.1923C57.127 56.2005 57.1316 56.2337 57.1316 56.3H59.1316C59.1316 56.0263 59.1004 55.6648 58.9246 55.3384C58.8287 55.1602 58.6805 54.9762 58.4611 54.8404C58.2389 54.7028 58.0005 54.65 57.7816 54.65V56.65ZM57.1316 56.3C57.1316 56.3777 57.1266 56.4225 57.1234 56.4419C57.1197 56.4639 57.1215 56.4342 57.1497 56.3778C57.1799 56.3175 57.2481 56.2122 57.3801 56.1242C57.5183 56.032 57.665 56 57.7816 56V58C58.015 58 58.2637 57.9388 58.4895 57.7883C58.709 57.642 58.8501 57.4492 58.9386 57.2722C59.1014 56.9466 59.1316 56.5844 59.1316 56.3H57.1316ZM57.7816 56H48.2816V58H57.7816V56ZM49.1648 56.5308C48.0236 54.3827 46.3671 51.4214 44.1985 47.6514L42.4648 48.6486C44.6295 52.4119 46.273 55.3506 47.3985 57.4692L49.1648 56.5308ZM44.2004 47.6547C42.0283 43.8453 40.2272 40.9141 38.8009 38.8765L37.1624 40.0235C38.5361 41.9859 40.3016 44.8547 42.4629 48.6453L44.2004 47.6547ZM37.8821 38.455C37.6002 38.4832 37.1408 38.5 36.4816 38.5V40.5C37.1558 40.5 37.6964 40.4835 38.0811 40.445L37.8821 38.455ZM36.4816 38.5H33.2316V40.5H36.4816V38.5ZM32.2316 39.5V52.2H34.2316V39.5H32.2316ZM32.2316 52.2C32.2316 53.6671 32.6498 54.9636 33.7683 55.7262L34.895 54.0738C34.5468 53.8364 34.2316 53.3329 34.2316 52.2H32.2316ZM33.7683 55.7262C34.7351 56.3854 36.015 56.65 37.4816 56.65V54.65C36.215 54.65 35.3948 54.4146 34.895 54.0738L33.7683 55.7262ZM37.4816 56.65H38.2316V54.65H37.4816V56.65ZM38.2316 56.65C38.1295 56.65 37.9931 56.6243 37.8584 56.5409C37.7265 56.4592 37.6513 56.3564 37.6137 56.2866C37.5789 56.2221 37.5736 56.1819 37.5755 56.1923C37.577 56.2005 37.5816 56.2337 37.5816 56.3H39.5816C39.5816 56.0263 39.5504 55.6648 39.3746 55.3384C39.2787 55.1602 39.1305 54.9762 38.9111 54.8404C38.6889 54.7028 38.4505 54.65 38.2316 54.65V56.65ZM37.5816 56.3C37.5816 56.3777 37.5766 56.4225 37.5734 56.4419C37.5697 56.4639 37.5715 56.4342 37.5997 56.3778C37.6299 56.3175 37.6981 56.2122 37.8301 56.1242C37.9683 56.032 38.115 56 38.2316 56V58C38.465 58 38.7137 57.9388 38.9395 57.7883C39.159 57.642 39.3001 57.4492 39.3886 57.2722C39.5514 56.9466 39.5816 56.5844 39.5816 56.3H37.5816ZM38.2316 56H23.3816V58H38.2316V56ZM23.3816 56C23.4983 56 23.645 56.032 23.7832 56.1242C23.9152 56.2122 23.9834 56.3175 24.0136 56.3778C24.0418 56.4342 24.0436 56.4639 24.0399 56.4419C24.0367 56.4225 24.0316 56.3777 24.0316 56.3H22.0316C22.0316 56.5844 22.0619 56.9466 22.2247 57.2722C22.3132 57.4492 22.4543 57.642 22.6738 57.7883C22.8996 57.9388 23.1483 58 23.3816 58V56ZM24.0316 56.3C24.0316 56.2337 24.0363 56.2005 24.0378 56.1923C24.0397 56.1819 24.0344 56.2221 23.9996 56.2866C23.962 56.3564 23.8868 56.4592 23.7549 56.5409C23.6202 56.6243 23.4838 56.65 23.3816 56.65V54.65C23.1628 54.65 22.9244 54.7028 22.7022 54.8404C22.4828 54.9762 22.3346 55.1602 22.2387 55.3384C22.0629 55.6648 22.0316 56.0263 22.0316 56.3H24.0316ZM23.3816 56.65H24.1316V54.65H23.3816V56.65ZM24.1316 56.65C25.6477 56.65 26.9637 56.3917 27.9129 55.7137L26.7504 54.0863C26.2996 54.4083 25.4822 54.65 24.1316 54.65V56.65ZM27.895 55.7262C29.0134 54.9636 29.4316 53.6671 29.4316 52.2H27.4316C27.4316 53.3329 27.1165 53.8364 26.7683 54.0738L27.895 55.7262ZM29.4316 52.2V25.3H27.4316V52.2H29.4316ZM29.4316 25.3C29.4316 23.8164 28.9863 22.5178 27.8279 21.7624L26.7354 23.4376C27.1103 23.6821 27.4316 24.1836 27.4316 25.3H29.4316ZM27.845 21.7738C26.8782 21.1146 25.5983 20.85 24.1316 20.85V22.85C25.3983 22.85 26.2184 23.0854 26.7183 23.4262L27.845 21.7738ZM24.1316 20.85H23.3816V22.85H24.1316V20.85ZM23.3816 20.85C23.4838 20.85 23.6202 20.8757 23.7549 20.9591C23.8868 21.0408 23.962 21.1436 23.9996 21.2134C24.0344 21.2779 24.0397 21.3181 24.0378 21.3077C24.0363 21.2995 24.0316 21.2663 24.0316 21.2H22.0316C22.0316 21.4737 22.0629 21.8352 22.2387 22.1616C22.3346 22.3398 22.4828 22.5238 22.7022 22.6596C22.9244 22.7972 23.1628 22.85 23.3816 22.85V20.85ZM24.0316 21.2C24.0316 21.1047 24.0351 21.0398 24.0392 20.9995C24.0411 20.98 24.0427 20.9715 24.0426 20.9718C24.0426 20.9722 24.0418 20.9762 24.0401 20.9832C24.0383 20.99 24.0353 21.0014 24.0303 21.0162L22.133 20.3838C22.0444 20.6493 22.0316 20.9574 22.0316 21.2H24.0316ZM23.9761 21.1472C23.9501 21.1992 23.8871 21.2982 23.7613 21.382C23.6293 21.47 23.49 21.5 23.3816 21.5V19.5C23.14 19.5 22.8839 19.5633 22.6519 19.7179C22.4262 19.8684 22.2799 20.0675 22.1872 20.2528L23.9761 21.1472ZM23.3859 21.5L35.1359 21.45L35.1274 19.45L23.3774 19.5L23.3859 21.5ZM35.1316 21.45H40.1316V19.45H35.1316V21.45ZM40.1163 21.4499C42.1671 21.4814 44.0591 21.8593 45.8017 22.575L46.5616 20.725C44.5708 19.9074 42.4295 19.4852 40.147 19.4501L40.1163 21.4499ZM45.8017 22.575C47.5266 23.2835 48.8812 24.2852 49.8972 25.5702L51.4661 24.3298C50.2155 22.7481 48.57 21.5499 46.5616 20.725L45.8017 22.575ZM49.9044 25.5792C50.888 26.7943 51.3816 28.2034 51.3816 29.85H53.3816C53.3816 27.7633 52.7419 25.9057 51.4589 24.3208L49.9044 25.5792ZM51.3816 29.85C51.3816 31.8148 50.6342 33.401 49.0929 34.6806L50.3704 36.2194C52.3625 34.5656 53.3816 32.4185 53.3816 29.85H51.3816ZM49.1016 34.6734C47.4704 35.9968 45.3599 37.0087 42.7336 37.6813L43.2297 39.6187C46.0701 38.8913 48.4595 37.7698 50.3617 36.2266L49.1016 34.6734ZM42.188 39.2584C42.918 40.2105 44.523 42.6795 47.0317 46.7268L48.7316 45.6732C46.2403 41.6539 44.5786 39.0895 43.7752 38.0416L42.188 39.2584ZM47.0332 46.7293C49.2956 50.3557 50.7243 52.6088 51.3047 53.4623L52.9586 52.3377C52.4056 51.5245 51.0011 49.311 48.7301 45.6707L47.0332 46.7293ZM51.3138 53.4755C52.0088 54.4631 52.8043 55.2519 53.7117 55.8042L54.7516 54.0958C54.1257 53.7148 53.5211 53.1369 52.9494 52.3245L51.3138 53.4755ZM53.7278 55.8138C54.7528 56.4117 56.1459 56.65 57.7816 56.65V54.65C56.284 54.65 55.3105 54.4216 54.7355 54.0862L53.7278 55.8138ZM34.7316 39.1C39.4096 39.1 42.9377 38.2904 44.9674 36.3778L43.5958 34.9222C42.1589 36.2762 39.3203 37.1 34.7316 37.1V39.1ZM44.9605 36.3843C46.9313 34.5622 47.9316 32.2796 47.9316 29.6H45.9316C45.9316 31.7204 45.1653 33.4711 43.6028 34.9157L44.9605 36.3843ZM47.9316 29.6C47.9316 26.7625 46.8979 24.5112 44.7501 23.0273L43.6132 24.6727C45.1321 25.7221 45.9316 27.3042 45.9316 29.6H47.9316ZM44.7571 23.0322C42.7537 21.6224 40.2903 20.95 37.4316 20.95V22.95C39.973 22.95 42.0096 23.5443 43.6061 24.6678L44.7571 23.0322ZM37.4316 20.95C36.0635 20.95 34.858 21.1821 33.8896 21.7294L34.8737 23.4706C35.4386 23.1512 36.2664 22.95 37.4316 22.95V20.95ZM33.9191 21.7134C32.6799 22.36 32.2316 23.6545 32.2316 25.1H34.2316C34.2316 24.0122 34.5501 23.64 34.8442 23.4866L33.9191 21.7134ZM32.2316 25.1V38.1H34.2316V25.1H32.2316ZM33.2316 39.1H34.7316V37.1H33.2316V39.1ZM85.7582 57L84.8751 57.4692C85.0486 57.7958 85.3883 58 85.7582 58V57ZM80.8082 48.15L79.9395 48.6453L79.9414 48.6486L80.8082 48.15ZM75.4582 39.45L76.2774 38.8765C76.07 38.5802 75.7187 38.419 75.3587 38.455L75.4582 39.45ZM70.7082 39.5V38.5C70.1559 38.5 69.7082 38.9477 69.7082 39.5H70.7082ZM71.8082 54.9L72.3715 54.0738L72.3715 54.0738L71.8082 54.9ZM64.8082 54.9L64.2449 54.0738C64.2389 54.0779 64.2329 54.082 64.227 54.0863L64.8082 54.9ZM64.7582 22.6L64.1949 23.4262C64.2005 23.4301 64.2062 23.4339 64.2119 23.4376L64.7582 22.6ZM60.5582 20.7L59.6638 20.2528C59.6426 20.2951 59.6245 20.3389 59.6095 20.3838L60.5582 20.7ZM60.8582 20.5L60.8582 21.5L60.8625 21.5L60.8582 20.5ZM72.6082 20.45V19.45L72.6039 19.45L72.6082 20.45ZM77.6082 20.45L77.6236 19.4501C77.6185 19.45 77.6133 19.45 77.6082 19.45V20.45ZM83.6582 21.65L84.0381 20.725L84.0381 20.725L83.6582 21.65ZM88.1582 24.95L87.3737 25.5703L87.381 25.5792L88.1582 24.95ZM87.2082 35.45L87.8383 36.2266L87.847 36.2194L87.2082 35.45ZM80.4582 38.65L80.2101 37.6813C79.8847 37.7646 79.6229 38.0057 79.5131 38.3231C79.4033 38.6405 79.4602 38.9919 79.6646 39.2584L80.4582 38.65ZM85.3582 46.2L84.5082 46.7268L84.5098 46.7293L85.3582 46.2ZM89.6082 52.9L88.7813 53.4623C88.7843 53.4667 88.7873 53.4711 88.7904 53.4755L89.6082 52.9ZM91.7082 54.95L91.1883 55.8042C91.1936 55.8074 91.1989 55.8106 91.2043 55.8138L91.7082 54.95ZM81.7582 35.65L81.0793 34.9157L81.0724 34.9222L81.7582 35.65ZM81.6582 23.85L81.0827 24.6678L81.0898 24.6727L81.6582 23.85ZM71.8582 22.6L72.3208 23.4866C72.3307 23.4814 72.3405 23.4761 72.3503 23.4706L71.8582 22.6ZM70.7082 38.1H69.7082C69.7082 38.6523 70.1559 39.1 70.7082 39.1V38.1ZM95.2582 56.65C95.1561 56.65 95.0197 56.6243 94.885 56.5409C94.7531 56.4592 94.6778 56.3564 94.6402 56.2866C94.6055 56.2221 94.6002 56.1819 94.6021 56.1923C94.6035 56.2005 94.6082 56.2337 94.6082 56.3H96.6082C96.6082 56.0263 96.5769 55.6648 96.4012 55.3384C96.3052 55.1602 96.1571 54.9762 95.9377 54.8404C95.7155 54.7028 95.477 54.65 95.2582 54.65V56.65ZM94.6082 56.3C94.6082 56.3777 94.6032 56.4225 94.5999 56.4419C94.5963 56.4639 94.5981 56.4342 94.6263 56.3778C94.6564 56.3175 94.7246 56.2122 94.8566 56.1242C94.9949 56.032 95.1416 56 95.2582 56V58C95.4915 58 95.7403 57.9388 95.966 57.7883C96.1855 57.642 96.3267 57.4492 96.4151 57.2722C96.5779 56.9466 96.6082 56.5844 96.6082 56.3H94.6082ZM95.2582 56H85.7582V58H95.2582V56ZM86.6413 56.5308C85.5001 54.3827 83.8436 51.4214 81.675 47.6514L79.9414 48.6486C82.1061 52.4119 83.7496 55.3506 84.8751 57.4692L86.6413 56.5308ZM81.6769 47.6547C79.5049 43.8453 77.7037 40.9141 76.2774 38.8765L74.639 40.0235C76.0127 41.9859 77.7782 44.8547 79.9395 48.6453L81.6769 47.6547ZM75.3587 38.455C75.0767 38.4832 74.6173 38.5 73.9582 38.5V40.5C74.6324 40.5 75.173 40.4835 75.5577 40.445L75.3587 38.455ZM73.9582 38.5H70.7082V40.5H73.9582V38.5ZM69.7082 39.5V52.2H71.7082V39.5H69.7082ZM69.7082 52.2C69.7082 53.6671 70.1264 54.9636 71.2449 55.7262L72.3715 54.0738C72.0233 53.8364 71.7082 53.3329 71.7082 52.2H69.7082ZM71.2449 55.7262C72.2117 56.3854 73.4915 56.65 74.9582 56.65V54.65C73.6915 54.65 72.8714 54.4146 72.3715 54.0738L71.2449 55.7262ZM74.9582 56.65H75.7082V54.65H74.9582V56.65ZM75.7082 56.65C75.6061 56.65 75.4697 56.6243 75.335 56.5409C75.2031 56.4592 75.1278 56.3564 75.0902 56.2866C75.0555 56.2221 75.0502 56.1819 75.0521 56.1923C75.0535 56.2005 75.0582 56.2337 75.0582 56.3H77.0582C77.0582 56.0263 77.0269 55.6648 76.8512 55.3384C76.7552 55.1602 76.6071 54.9762 76.3877 54.8404C76.1655 54.7028 75.927 54.65 75.7082 54.65V56.65ZM75.0582 56.3C75.0582 56.3777 75.0532 56.4225 75.0499 56.4419C75.0463 56.4639 75.0481 56.4342 75.0763 56.3778C75.1064 56.3175 75.1746 56.2122 75.3066 56.1242C75.4449 56.032 75.5916 56 75.7082 56V58C75.9415 58 76.1903 57.9388 76.416 57.7883C76.6355 57.642 76.7766 57.4492 76.8651 57.2722C77.0279 56.9466 77.0582 56.5844 77.0582 56.3H75.0582ZM75.7082 56H60.8582V58H75.7082V56ZM60.8582 56C60.9749 56 61.1215 56.032 61.2598 56.1242C61.3918 56.2122 61.46 56.3175 61.4901 56.3778C61.5183 56.4342 61.5201 56.4639 61.5165 56.4419C61.5133 56.4225 61.5082 56.3777 61.5082 56.3H59.5082C59.5082 56.5844 59.5385 56.9466 59.7013 57.2722C59.7898 57.4492 59.9309 57.642 60.1504 57.7883C60.3761 57.9388 60.6249 58 60.8582 58V56ZM61.5082 56.3C61.5082 56.2337 61.5129 56.2005 61.5143 56.1923C61.5162 56.1819 61.5109 56.2221 61.4762 56.2866C61.4386 56.3564 61.3633 56.4592 61.2314 56.5409C61.0967 56.6243 60.9604 56.65 60.8582 56.65V54.65C60.6394 54.65 60.4009 54.7028 60.1787 54.8404C59.9593 54.9762 59.8112 55.1602 59.7152 55.3384C59.5395 55.6648 59.5082 56.0263 59.5082 56.3H61.5082ZM60.8582 56.65H61.6082V54.65H60.8582V56.65ZM61.6082 56.65C63.1243 56.65 64.4402 56.3917 65.3894 55.7137L64.227 54.0863C63.7762 54.4083 62.9588 54.65 61.6082 54.65V56.65ZM65.3715 55.7262C66.49 54.9636 66.9082 53.6671 66.9082 52.2H64.9082C64.9082 53.3329 64.5931 53.8364 64.2449 54.0738L65.3715 55.7262ZM66.9082 52.2V25.3H64.9082V52.2H66.9082ZM66.9082 25.3C66.9082 23.8164 66.4628 22.5178 65.3045 21.7624L64.2119 23.4376C64.5869 23.6821 64.9082 24.1836 64.9082 25.3H66.9082ZM65.3215 21.7738C64.3547 21.1146 63.0749 20.85 61.6082 20.85V22.85C62.8749 22.85 63.695 23.0854 64.1949 23.4262L65.3215 21.7738ZM61.6082 20.85H60.8582V22.85H61.6082V20.85ZM60.8582 20.85C60.9604 20.85 61.0967 20.8757 61.2314 20.9591C61.3633 21.0408 61.4386 21.1436 61.4762 21.2134C61.5109 21.2779 61.5162 21.3181 61.5143 21.3077C61.5129 21.2995 61.5082 21.2663 61.5082 21.2H59.5082C59.5082 21.4737 59.5395 21.8352 59.7152 22.1616C59.8112 22.3398 59.9593 22.5238 60.1787 22.6596C60.4009 22.7972 60.6394 22.85 60.8582 22.85V20.85ZM61.5082 21.2C61.5082 21.1047 61.5117 21.0398 61.5157 20.9995C61.5177 20.98 61.5193 20.9715 61.5192 20.9718C61.5191 20.9722 61.5184 20.9762 61.5166 20.9832C61.5149 20.99 61.5118 21.0014 61.5069 21.0162L59.6095 20.3838C59.521 20.6493 59.5082 20.9574 59.5082 21.2H61.5082ZM61.4526 21.1472C61.4266 21.1992 61.3636 21.2982 61.2379 21.382C61.1059 21.47 60.9665 21.5 60.8582 21.5V19.5C60.6166 19.5 60.3605 19.5633 60.1285 19.7179C59.9028 19.8684 59.7564 20.0675 59.6638 20.2528L61.4526 21.1472ZM60.8625 21.5L72.6125 21.45L72.6039 19.45L60.8539 19.5L60.8625 21.5ZM72.6082 21.45H77.6082V19.45H72.6082V21.45ZM77.5928 21.4499C79.6437 21.4814 81.5357 21.8593 83.2783 22.575L84.0381 20.725C82.0474 19.9074 79.9061 19.4852 77.6236 19.4501L77.5928 21.4499ZM83.2783 22.575C85.0032 23.2835 86.3577 24.2852 87.3738 25.5702L88.9426 24.3298C87.692 22.7481 86.0466 21.5499 84.0381 20.725L83.2783 22.575ZM87.381 25.5792C88.3646 26.7943 88.8582 28.2034 88.8582 29.85H90.8582C90.8582 27.7633 90.2185 25.9057 88.9354 24.3208L87.381 25.5792ZM88.8582 29.85C88.8582 31.8148 88.1107 33.401 86.5694 34.6806L87.847 36.2194C89.839 34.5656 90.8582 32.4185 90.8582 29.85H88.8582ZM86.5782 34.6734C84.947 35.9968 82.8365 37.0087 80.2101 37.6813L80.7063 39.6187C83.5466 38.8913 85.9361 37.7698 87.8382 36.2266L86.5782 34.6734ZM79.6646 39.2584C80.3945 40.2105 81.9995 42.6795 84.5082 46.7268L86.2082 45.6732C83.7169 41.6539 82.0552 39.0895 81.2518 38.0416L79.6646 39.2584ZM84.5098 46.7293C86.7721 50.3557 88.2009 52.6088 88.7813 53.4623L90.4351 52.3377C89.8822 51.5245 88.4776 49.311 86.2066 45.6707L84.5098 46.7293ZM88.7904 53.4755C89.4854 54.4631 90.2808 55.2519 91.1883 55.8042L92.2282 54.0958C91.6022 53.7148 90.9977 53.1369 90.426 52.3245L88.7904 53.4755ZM91.2043 55.8138C92.2293 56.4117 93.6225 56.65 95.2582 56.65V54.65C93.7606 54.65 92.7871 54.4216 92.2121 54.0862L91.2043 55.8138ZM72.2082 39.1C76.8862 39.1 80.4143 38.2904 82.444 36.3778L81.0724 34.9222C79.6355 36.2762 76.7969 37.1 72.2082 37.1V39.1ZM82.4371 36.3843C84.4079 34.5622 85.4082 32.2796 85.4082 29.6H83.4082C83.4082 31.7204 82.6419 33.4711 81.0793 34.9157L82.4371 36.3843ZM85.4082 29.6C85.4082 26.7625 84.3744 24.5112 82.2266 23.0273L81.0898 24.6727C82.6087 25.7221 83.4082 27.3042 83.4082 29.6H85.4082ZM82.2337 23.0322C80.2302 21.6224 77.7669 20.95 74.9082 20.95V22.95C77.4495 22.95 79.4862 23.5443 81.0827 24.6678L82.2337 23.0322ZM74.9082 20.95C73.5401 20.95 72.3345 21.1821 71.3661 21.7294L72.3503 23.4706C72.9152 23.1512 73.743 22.95 74.9082 22.95V20.95ZM71.3956 21.7134C70.1564 22.36 69.7082 23.6545 69.7082 25.1H71.7082C71.7082 24.0122 72.0267 23.64 72.3208 23.4866L71.3956 21.7134ZM69.7082 25.1V38.1H71.7082V25.1H69.7082ZM70.7082 39.1H72.2082V37.1H70.7082V39.1ZM110.935 54.9L111.516 55.7137C111.524 55.7078 111.533 55.7017 111.541 55.6954L110.935 54.9ZM112.035 52.2L113.034 52.2263C113.035 52.2175 113.035 52.2088 113.035 52.2H112.035ZM112.035 44.8H113.035C113.035 44.6422 112.997 44.4866 112.926 44.346L112.035 44.8ZM102.035 25.25L101.154 25.7228L101.154 25.7241L102.035 25.25ZM99.8848 22.55L99.3301 23.382C99.3394 23.3883 99.3489 23.3944 99.3584 23.4003L99.8848 22.55ZM96.6848 20.7L95.7903 20.2528C95.7692 20.2951 95.751 20.3389 95.7361 20.3838L96.6848 20.7ZM111.485 20.7L110.515 20.9425C110.542 21.0537 110.589 21.1593 110.653 21.2547L111.485 20.7ZM107.185 25.3L108.106 24.9104C108.103 24.9048 108.101 24.8993 108.099 24.8939L107.185 25.3ZM115.735 41.9L114.849 42.3634C115.022 42.6945 115.365 42.9015 115.739 42.9C116.112 42.8985 116.454 42.6888 116.625 42.3563L115.735 41.9ZM123.785 26.2L124.675 26.6563C124.686 26.6339 124.697 26.6112 124.706 26.5881L123.785 26.2ZM122.935 22.6L122.42 23.4575C122.429 23.4626 122.437 23.4676 122.446 23.4725L122.935 22.6ZM132.685 20.7L131.715 20.9425C131.742 21.0537 131.789 21.1593 131.853 21.2547L132.685 20.7ZM128.785 23L129.364 23.8155C129.369 23.8114 129.375 23.8073 129.381 23.8031L128.785 23ZM126.085 26.1L125.218 25.6015C125.212 25.6121 125.206 25.6228 125.2 25.6336L126.085 26.1ZM116.885 43.55L116 43.0836C115.924 43.2274 115.885 43.3875 115.885 43.55H116.885ZM117.985 54.9L117.421 55.7262C117.427 55.7301 117.433 55.7339 117.438 55.7376L117.985 54.9ZM107.035 56C107.151 56 107.298 56.032 107.436 56.1242C107.568 56.2122 107.637 56.3175 107.667 56.3778C107.695 56.4342 107.697 56.4639 107.693 56.4419C107.69 56.4225 107.685 56.3777 107.685 56.3H105.685C105.685 56.5844 105.715 56.9466 105.878 57.2722C105.966 57.4492 106.107 57.642 106.327 57.7883C106.553 57.9388 106.801 58 107.035 58V56ZM107.685 56.3C107.685 56.2337 107.689 56.2005 107.691 56.1923C107.693 56.1819 107.687 56.2221 107.653 56.2866C107.615 56.3564 107.54 56.4592 107.408 56.5409C107.273 56.6243 107.137 56.65 107.035 56.65V54.65C106.816 54.65 106.577 54.7028 106.355 54.8404C106.136 54.9762 105.988 55.1602 105.892 55.3384C105.716 55.6648 105.685 56.0263 105.685 56.3H107.685ZM107.035 56.65H107.735V54.65H107.035V56.65ZM107.735 56.65C109.251 56.65 110.567 56.3917 111.516 55.7137L110.354 54.0863C109.903 54.4083 109.085 54.65 107.735 54.65V56.65ZM111.541 55.6954C112.574 54.9084 112.997 53.6571 113.034 52.2263L111.035 52.1737C111.006 53.2762 110.696 53.8249 110.329 54.1046L111.541 55.6954ZM113.035 52.2V44.8H111.035V52.2H113.035ZM112.926 44.346C106.731 32.1893 103.389 25.6557 102.915 24.7759L101.154 25.7241C101.614 26.5776 104.939 33.0774 111.144 45.254L112.926 44.346ZM102.916 24.7772C102.161 23.3706 101.342 22.2759 100.411 21.6997L99.3584 23.4003C99.8276 23.6907 100.442 24.3961 101.154 25.7228L102.916 24.7772ZM100.439 21.7179C99.6001 21.1584 98.6934 20.85 97.7348 20.85V22.85C98.2428 22.85 98.7695 23.0083 99.3301 23.382L100.439 21.7179ZM97.7348 20.85H96.9848V22.85H97.7348V20.85ZM96.9848 20.85C97.0869 20.85 97.2233 20.8757 97.358 20.9591C97.4899 21.0408 97.5651 21.1436 97.6027 21.2134C97.6375 21.2779 97.6428 21.3181 97.6409 21.3077C97.6394 21.2995 97.6348 21.2663 97.6348 21.2H95.6348C95.6348 21.4737 95.666 21.8352 95.8418 22.1616C95.9377 22.3398 96.0859 22.5238 96.3053 22.6596C96.5275 22.7972 96.7659 22.85 96.9848 22.85V20.85ZM97.6348 21.2C97.6348 21.1047 97.6383 21.0398 97.6423 20.9995C97.6443 20.98 97.6458 20.9715 97.6458 20.9718C97.6457 20.9722 97.6449 20.9762 97.6432 20.9832C97.6415 20.99 97.6384 21.0014 97.6334 21.0162L95.7361 20.3838C95.6476 20.6493 95.6348 20.9574 95.6348 21.2H97.6348ZM97.5792 21.1472C97.5532 21.1992 97.4902 21.2982 97.3645 21.382C97.2325 21.47 97.0931 21.5 96.9848 21.5V19.5C96.7431 19.5 96.4871 19.5633 96.2551 19.7179C96.0293 19.8684 95.883 20.0675 95.7903 20.2528L97.5792 21.1472ZM96.9848 21.5H111.235V19.5H96.9848V21.5ZM111.235 21.5C111.132 21.5 110.949 21.4718 110.773 21.3309C110.6 21.1925 110.536 21.0267 110.515 20.9425L112.455 20.4575C112.401 20.2399 112.278 19.9742 112.022 19.7691C111.762 19.5615 111.471 19.5 111.235 19.5V21.5ZM110.653 21.2547C110.62 21.2056 110.602 21.1642 110.592 21.1386C110.583 21.113 110.579 21.0974 110.579 21.0961C110.579 21.0945 110.58 21.1019 110.582 21.1205C110.584 21.1389 110.585 21.1651 110.585 21.2H112.585C112.585 20.9251 112.556 20.5035 112.317 20.1453L110.653 21.2547ZM110.585 21.2C110.585 21.2663 110.58 21.2995 110.579 21.3077C110.577 21.3181 110.582 21.2779 110.617 21.2134C110.654 21.1436 110.73 21.0408 110.862 20.9591C110.996 20.8757 111.133 20.85 111.235 20.85V22.85C111.454 22.85 111.692 22.7972 111.914 22.6596C112.134 22.5238 112.282 22.3398 112.378 22.1616C112.553 21.8352 112.585 21.4737 112.585 21.2H110.585ZM111.235 20.85H110.485V22.85H111.235V20.85ZM110.485 20.85C109.194 20.85 108.069 21.0188 107.234 21.4703C106.802 21.7041 106.427 22.0245 106.165 22.4501C105.901 22.8784 105.785 23.3569 105.785 23.85H107.785C107.785 23.6764 107.823 23.5716 107.867 23.4999C107.913 23.4255 108.001 23.3292 108.185 23.2297C108.583 23.0145 109.309 22.85 110.485 22.85V20.85ZM105.785 23.85C105.785 24.4268 105.985 25.0636 106.271 25.7061L108.099 24.8939C107.851 24.3364 107.785 24.0065 107.785 23.85H105.785ZM106.264 25.6896C106.651 26.6058 109.533 32.1976 114.849 42.3634L116.621 41.4366C111.27 31.2024 108.451 25.7275 108.106 24.9104L106.264 25.6896ZM116.625 42.3563L124.675 26.6563L122.895 25.7437L114.845 41.4437L116.625 42.3563ZM124.706 26.5881C124.993 25.9075 125.185 25.2462 125.185 24.65H123.185C123.185 24.8538 123.11 25.2259 122.863 25.8119L124.706 26.5881ZM125.185 24.65C125.185 23.3615 124.549 22.3577 123.423 21.7275L122.446 23.4725C122.988 23.7757 123.185 24.1385 123.185 24.65H125.185ZM123.449 21.7425C122.502 21.1739 121.525 20.85 120.535 20.85V22.85C121.078 22.85 121.701 23.0261 122.42 23.4575L123.449 21.7425ZM120.535 20.85H119.785V22.85H120.535V20.85ZM119.785 20.85C119.887 20.85 120.023 20.8757 120.158 20.9591C120.29 21.0408 120.365 21.1436 120.403 21.2134C120.437 21.2779 120.443 21.3181 120.441 21.3077C120.439 21.2995 120.435 21.2663 120.435 21.2H118.435C118.435 21.4737 118.466 21.8352 118.642 22.1616C118.738 22.3398 118.886 22.5238 119.105 22.6596C119.328 22.7972 119.566 22.85 119.785 22.85V20.85ZM120.435 21.2C120.435 21.1223 120.44 21.0775 120.443 21.0581C120.447 21.0361 120.445 21.0658 120.417 21.1222C120.387 21.1825 120.318 21.2878 120.186 21.3758C120.048 21.468 119.901 21.5 119.785 21.5V19.5C119.551 19.5 119.303 19.5612 119.077 19.7117C118.857 19.858 118.716 20.0508 118.628 20.2278C118.465 20.5534 118.435 20.9156 118.435 21.2H120.435ZM119.785 21.5H132.385V19.5H119.785V21.5ZM132.385 21.5C132.344 21.5 132.197 21.493 132.03 21.3821C131.843 21.2576 131.749 21.0801 131.715 20.9425L133.655 20.4575C133.587 20.1866 133.426 19.9091 133.139 19.7179C132.873 19.5403 132.592 19.5 132.385 19.5V21.5ZM131.853 21.2547C131.82 21.2056 131.802 21.1642 131.792 21.1386C131.783 21.113 131.779 21.0974 131.779 21.0961C131.779 21.0945 131.78 21.1019 131.782 21.1205C131.784 21.1389 131.785 21.1651 131.785 21.2H133.785C133.785 20.9251 133.756 20.5035 133.517 20.1453L131.853 21.2547ZM131.785 21.2C131.785 21.2601 131.78 21.2848 131.78 21.2834C131.78 21.2832 131.79 21.2337 131.833 21.1634C131.88 21.0864 131.962 20.996 132.083 20.9301C132.203 20.8653 132.314 20.85 132.385 20.85V22.85C132.845 22.85 133.277 22.6326 133.536 22.2116C133.746 21.8702 133.785 21.4867 133.785 21.2H131.785ZM132.385 20.85H131.685V22.85H132.385V20.85ZM131.685 20.85C130.495 20.85 129.323 21.3555 128.189 22.1969L129.381 23.8031C130.313 23.1112 131.074 22.85 131.685 22.85V20.85ZM128.206 22.1845C127.032 23.0174 126.041 24.1692 125.218 25.6015L126.952 26.5985C127.661 25.3641 128.47 24.4493 129.364 23.8155L128.206 22.1845ZM125.2 25.6336L116 43.0836L117.769 44.0164L126.969 26.5664L125.2 25.6336ZM115.885 43.55V52.2H117.885V43.55H115.885ZM115.885 52.2C115.885 53.6671 116.303 54.9636 117.421 55.7262L118.548 54.0738C118.2 53.8364 117.885 53.3329 117.885 52.2H115.885ZM117.438 55.7376C118.429 56.3838 119.714 56.65 121.185 56.65V54.65C119.922 54.65 119.074 54.4162 118.531 54.0624L117.438 55.7376ZM121.185 56.65H121.885V54.65H121.185V56.65ZM121.885 56.65C121.814 56.65 121.703 56.6347 121.583 56.5699C121.462 56.504 121.38 56.4136 121.333 56.3366C121.29 56.2663 121.28 56.2168 121.28 56.2166C121.28 56.2152 121.285 56.2399 121.285 56.3H123.285C123.285 56.0133 123.246 55.6298 123.036 55.2884C122.777 54.8674 122.345 54.65 121.885 54.65V56.65ZM121.285 56.3C121.285 56.372 121.279 56.4089 121.277 56.4191C121.275 56.4313 121.28 56.392 121.317 56.3289C121.356 56.2596 121.431 56.1651 121.556 56.0925C121.681 56.0196 121.802 56 121.885 56V58C122.38 58 122.81 57.7464 123.053 57.3211C123.248 56.9795 123.285 56.5958 123.285 56.3H121.285ZM121.885 56H107.035V58H121.885V56ZM138.825 54.5L139.474 55.2612C139.479 55.2567 139.485 55.2521 139.49 55.2474L138.825 54.5ZM139.075 22.55L138.521 23.382C138.536 23.3921 138.551 23.4017 138.567 23.4109L139.075 22.55ZM145.375 20.5L146.299 20.1169C146.144 19.7434 145.78 19.5 145.375 19.5V20.5ZM157.175 48.95L156.252 49.3331C156.406 49.7053 156.769 49.9485 157.172 49.95C157.575 49.9515 157.939 49.711 158.096 49.34L157.175 48.95ZM169.225 20.5V19.5C168.824 19.5 168.461 19.7402 168.305 20.11L169.225 20.5ZM179.275 20.7L178.305 20.9425C178.333 21.0537 178.38 21.1593 178.443 21.2547L179.275 20.7ZM175.075 22.6L174.494 21.7863C174.488 21.7908 174.482 21.7953 174.475 21.8L175.075 22.6ZM175.125 54.9L175.707 54.0863L175.707 54.0863L175.125 54.9ZM168.275 54.9L167.694 54.0863L167.694 54.0863L168.275 54.9ZM169.325 25.2H170.325C170.325 24.7236 169.989 24.3133 169.522 24.2195C169.055 24.1258 168.587 24.3746 168.403 24.8141L169.325 25.2ZM156.025 57V58C156.429 58 156.792 57.7578 156.948 57.3859L156.025 57ZM155.225 57L154.301 57.3822C154.456 57.7561 154.821 58 155.225 58V57ZM142.175 25.45L143.099 25.0678C142.917 24.6268 142.449 24.3762 141.981 24.4692C141.513 24.5621 141.175 24.9728 141.175 25.45H142.175ZM143.525 54.5L142.861 55.2474C142.871 55.256 142.881 55.2645 142.891 55.2727L143.525 54.5ZM135.225 56C135.309 56 135.429 56.0196 135.554 56.0925C135.679 56.1651 135.754 56.2596 135.794 56.3289C135.83 56.392 135.835 56.4313 135.833 56.4191C135.831 56.4089 135.825 56.372 135.825 56.3H133.825C133.825 56.5958 133.862 56.9795 134.057 57.3211C134.3 57.7464 134.73 58 135.225 58V56ZM135.825 56.3C135.825 56.2399 135.83 56.2152 135.83 56.2166C135.83 56.2168 135.82 56.2663 135.777 56.3366C135.73 56.4136 135.648 56.504 135.527 56.5699C135.407 56.6347 135.296 56.65 135.225 56.65V54.65C134.765 54.65 134.333 54.8674 134.074 55.2884C133.864 55.6298 133.825 56.0133 133.825 56.3H135.825ZM135.225 56.65H135.875V54.65H135.225V56.65ZM135.875 56.65C137.206 56.65 138.414 56.1641 139.474 55.2612L138.177 53.7388C137.437 54.3692 136.678 54.65 135.875 54.65V56.65ZM139.49 55.2474C140.602 54.2584 141.175 52.9868 141.175 51.5H139.175C139.175 52.4132 138.848 53.1416 138.161 53.7526L139.49 55.2474ZM141.175 51.5V24.9H139.175V51.5H141.175ZM141.175 24.9C141.175 23.5456 140.721 22.3609 139.584 21.6891L138.567 23.4109C138.896 23.6058 139.175 23.9877 139.175 24.9H141.175ZM139.63 21.7179C138.687 21.0889 137.382 20.85 135.875 20.85V22.85C137.235 22.85 138.064 23.0777 138.521 23.382L139.63 21.7179ZM135.875 20.85H135.225V22.85H135.875V20.85ZM135.225 20.85C135.328 20.85 135.464 20.8757 135.599 20.9591C135.731 21.0408 135.806 21.1436 135.843 21.2134C135.878 21.2779 135.883 21.3181 135.882 21.3077C135.88 21.2995 135.875 21.2663 135.875 21.2H133.875C133.875 21.4737 133.907 21.8352 134.082 22.1616C134.178 22.3398 134.327 22.5238 134.546 22.6596C134.768 22.7972 135.007 22.85 135.225 22.85V20.85ZM135.875 21.2C135.875 21.1223 135.88 21.0775 135.884 21.0581C135.887 21.0361 135.886 21.0658 135.857 21.1222C135.827 21.1825 135.759 21.2878 135.627 21.3758C135.489 21.468 135.342 21.5 135.225 21.5V19.5C134.992 19.5 134.743 19.5612 134.518 19.7117C134.298 19.858 134.157 20.0508 134.068 20.2278C133.906 20.5534 133.875 20.9156 133.875 21.2H135.875ZM135.225 21.5H145.375V19.5H135.225V21.5ZM144.452 20.8831L156.252 49.3331L158.099 48.5669L146.299 20.1169L144.452 20.8831ZM158.096 49.34L170.146 20.89L168.305 20.11L156.255 48.56L158.096 49.34ZM169.225 21.5H179.025V19.5H169.225V21.5ZM179.025 21.5C178.923 21.5 178.739 21.4718 178.563 21.3309C178.39 21.1925 178.326 21.0267 178.305 20.9425L180.246 20.4575C180.191 20.2399 180.069 19.9742 179.813 19.7691C179.553 19.5615 179.261 19.5 179.025 19.5V21.5ZM178.443 21.2547C178.411 21.2056 178.392 21.1642 178.383 21.1386C178.373 21.113 178.37 21.0974 178.37 21.0961C178.369 21.0945 178.371 21.1019 178.373 21.1205C178.374 21.1389 178.375 21.1651 178.375 21.2H180.375C180.375 20.9251 180.346 20.5035 180.107 20.1453L178.443 21.2547ZM178.375 21.2C178.375 21.2663 178.371 21.2995 178.369 21.3077C178.367 21.3181 178.373 21.2779 178.407 21.2134C178.445 21.1436 178.52 21.0408 178.652 20.9591C178.787 20.8757 178.923 20.85 179.025 20.85V22.85C179.244 22.85 179.483 22.7972 179.705 22.6596C179.924 22.5238 180.072 22.3398 180.168 22.1616C180.344 21.8352 180.375 21.4737 180.375 21.2H178.375ZM179.025 20.85H178.325V22.85H179.025V20.85ZM178.325 20.85C176.782 20.85 175.446 21.1062 174.494 21.7863L175.657 23.4137C176.105 23.0938 176.935 22.85 178.325 22.85V20.85ZM174.475 21.8C173.447 22.5712 173.075 23.8373 173.075 25.25H175.075C175.075 24.1294 175.37 23.6288 175.675 23.4L174.475 21.8ZM173.075 25.25V52.2H175.075V25.25H173.075ZM173.075 52.2C173.075 53.6509 173.467 54.9444 174.544 55.7137L175.707 54.0863C175.384 53.8556 175.075 53.3491 175.075 52.2H173.075ZM174.544 55.7137C175.493 56.3917 176.809 56.65 178.325 56.65V54.65C176.975 54.65 176.157 54.4083 175.707 54.0863L174.544 55.7137ZM178.325 56.65H179.025V54.65H178.325V56.65ZM179.025 56.65C178.923 56.65 178.787 56.6243 178.652 56.5409C178.52 56.4592 178.445 56.3564 178.407 56.2866C178.373 56.2221 178.367 56.1819 178.369 56.1923C178.371 56.2005 178.375 56.2337 178.375 56.3H180.375C180.375 56.0263 180.344 55.6648 180.168 55.3384C180.072 55.1602 179.924 54.9762 179.705 54.8404C179.483 54.7028 179.244 54.65 179.025 54.65V56.65ZM178.375 56.3C178.375 56.3777 178.37 56.4225 178.367 56.4419C178.363 56.4639 178.365 56.4342 178.393 56.3778C178.424 56.3175 178.492 56.2122 178.624 56.1242C178.762 56.032 178.909 56 179.025 56V58C179.259 58 179.507 57.9388 179.733 57.7883C179.953 57.642 180.094 57.4492 180.182 57.2722C180.345 56.9466 180.375 56.5844 180.375 56.3H178.375ZM179.025 56H164.275V58H179.025V56ZM164.275 56C164.435 56 164.61 56.052 164.758 56.1669C164.892 56.2707 164.949 56.3842 164.97 56.4311C164.99 56.4781 164.989 56.4967 164.984 56.4648C164.98 56.4362 164.975 56.3834 164.975 56.3H162.975C162.975 56.5742 163 56.9132 163.131 57.2189C163.201 57.3825 163.322 57.5835 163.53 57.7456C163.753 57.9188 164.016 58 164.275 58V56ZM164.975 56.3C164.975 56.2276 164.98 56.1857 164.983 56.1677C164.986 56.1466 164.984 56.1757 164.958 56.2316C164.932 56.2894 164.866 56.4027 164.73 56.5013C164.583 56.6074 164.418 56.65 164.275 56.65V54.65C164.033 54.65 163.781 54.7197 163.559 54.8799C163.347 55.0327 163.219 55.2273 163.142 55.3934C163.001 55.7005 162.975 56.0379 162.975 56.3H164.975ZM164.275 56.65H165.075V54.65H164.275V56.65ZM165.075 56.65C166.591 56.65 167.907 56.3917 168.857 55.7137L167.694 54.0863C167.243 54.4083 166.426 54.65 165.075 54.65V56.65ZM168.857 55.7137C169.934 54.9444 170.325 53.6509 170.325 52.2H168.325C168.325 53.3491 168.017 53.8556 167.694 54.0863L168.857 55.7137ZM170.325 52.2V25.2H168.325V52.2H170.325ZM168.403 24.8141L155.103 56.6141L156.948 57.3859L170.248 25.5858L168.403 24.8141ZM156.025 56H155.225V58H156.025V56ZM156.149 56.6178L143.099 25.0678L141.251 25.8322L154.301 57.3822L156.149 56.6178ZM141.175 25.45V51.5H143.175V25.45H141.175ZM141.175 51.5C141.175 52.9868 141.748 54.2584 142.861 55.2474L144.19 53.7526C143.502 53.1416 143.175 52.4132 143.175 51.5H141.175ZM142.891 55.2727C143.971 56.1603 145.173 56.65 146.475 56.65V54.65C145.712 54.65 144.946 54.373 144.16 53.7273L142.891 55.2727ZM146.475 56.65H147.175V54.65H146.475V56.65ZM147.175 56.65C147.033 56.65 146.868 56.6074 146.721 56.5013C146.585 56.4027 146.519 56.2894 146.492 56.2316C146.467 56.1757 146.465 56.1466 146.468 56.1677C146.471 56.1857 146.475 56.2276 146.475 56.3H148.475C148.475 56.0379 148.45 55.7005 148.308 55.3934C148.232 55.2273 148.104 55.0327 147.892 54.8799C147.67 54.7197 147.418 54.65 147.175 54.65V56.65ZM146.475 56.3C146.475 56.3834 146.471 56.4362 146.467 56.4648C146.462 56.4967 146.461 56.4781 146.481 56.4311C146.501 56.3842 146.559 56.2707 146.693 56.1669C146.84 56.052 147.016 56 147.175 56V58C147.435 58 147.698 57.9188 147.921 57.7456C148.129 57.5835 148.249 57.3825 148.32 57.2189C148.451 56.9132 148.475 56.5742 148.475 56.3H146.475ZM147.175 56H135.225V58H147.175V56ZM187.972 54.5L188.62 55.2612C188.626 55.2567 188.631 55.2521 188.636 55.2474L187.972 54.5ZM188.222 22.55L187.667 23.382C187.682 23.3921 187.698 23.4017 187.713 23.4109L188.222 22.55ZM194.522 20.5L195.446 20.1169C195.291 19.7434 194.926 19.5 194.522 19.5V20.5ZM206.322 48.95L205.398 49.3331C205.553 49.7053 205.915 49.9485 206.318 49.95C206.721 49.9515 207.086 49.711 207.243 49.34L206.322 48.95ZM218.372 20.5V19.5C217.97 19.5 217.608 19.7402 217.451 20.11L218.372 20.5ZM228.422 20.7L227.452 20.9425C227.48 21.0537 227.526 21.1593 227.59 21.2547L228.422 20.7ZM224.222 22.6L223.641 21.7863C223.634 21.7908 223.628 21.7953 223.622 21.8L224.222 22.6ZM224.272 54.9L224.853 54.0863L224.853 54.0863L224.272 54.9ZM217.422 54.9L216.841 54.0863L216.841 54.0863L217.422 54.9ZM218.472 25.2H219.472C219.472 24.7236 219.136 24.3133 218.669 24.2195C218.202 24.1258 217.733 24.3746 217.549 24.8141L218.472 25.2ZM205.172 57V58C205.575 58 205.939 57.7578 206.094 57.3859L205.172 57ZM204.372 57L203.448 57.3822C203.602 57.7561 203.967 58 204.372 58V57ZM191.322 25.45L192.246 25.0678C192.064 24.6268 191.595 24.3762 191.127 24.4692C190.659 24.5621 190.322 24.9728 190.322 25.45H191.322ZM192.672 54.5L192.008 55.2474C192.017 55.256 192.027 55.2645 192.037 55.2727L192.672 54.5ZM184.372 56C184.455 56 184.576 56.0196 184.701 56.0925C184.825 56.1651 184.901 56.2596 184.94 56.3289C184.976 56.392 184.982 56.4313 184.979 56.4191C184.977 56.4089 184.972 56.372 184.972 56.3H182.972C182.972 56.5958 183.008 56.9795 183.204 57.3211C183.447 57.7464 183.876 58 184.372 58V56ZM184.972 56.3C184.972 56.2399 184.977 56.2152 184.976 56.2166C184.976 56.2168 184.967 56.2663 184.924 56.3366C184.876 56.4136 184.795 56.504 184.673 56.5699C184.554 56.6347 184.443 56.65 184.372 56.65V54.65C183.912 54.65 183.479 54.8674 183.22 55.2884C183.01 55.6298 182.972 56.0133 182.972 56.3H184.972ZM184.372 56.65H185.022V54.65H184.372V56.65ZM185.022 56.65C186.352 56.65 187.56 56.1641 188.62 55.2612L187.323 53.7388C186.583 54.3692 185.825 54.65 185.022 54.65V56.65ZM188.636 55.2474C189.749 54.2584 190.322 52.9868 190.322 51.5H188.322C188.322 52.4132 187.995 53.1416 187.308 53.7526L188.636 55.2474ZM190.322 51.5V24.9H188.322V51.5H190.322ZM190.322 24.9C190.322 23.5456 189.867 22.3609 188.731 21.6891L187.713 23.4109C188.043 23.6058 188.322 23.9877 188.322 24.9H190.322ZM188.777 21.7179C187.833 21.0889 186.529 20.85 185.022 20.85V22.85C186.381 22.85 187.211 23.0777 187.667 23.382L188.777 21.7179ZM185.022 20.85H184.372V22.85H185.022V20.85ZM184.372 20.85C184.474 20.85 184.61 20.8757 184.745 20.9591C184.877 21.0408 184.952 21.1436 184.99 21.2134C185.025 21.2779 185.03 21.3181 185.028 21.3077C185.027 21.2995 185.022 21.2663 185.022 21.2H183.022C183.022 21.4737 183.053 21.8352 183.229 22.1616C183.325 22.3398 183.473 22.5238 183.692 22.6596C183.915 22.7972 184.153 22.85 184.372 22.85V20.85ZM185.022 21.2C185.022 21.1223 185.027 21.0775 185.03 21.0581C185.034 21.0361 185.032 21.0658 185.004 21.1222C184.974 21.1825 184.905 21.2878 184.773 21.3758C184.635 21.468 184.489 21.5 184.372 21.5V19.5C184.139 19.5 183.89 19.5612 183.664 19.7117C183.445 19.858 183.303 20.0508 183.215 20.2278C183.052 20.5534 183.022 20.9156 183.022 21.2H185.022ZM184.372 21.5H194.522V19.5H184.372V21.5ZM193.598 20.8831L205.398 49.3331L207.246 48.5669L195.446 20.1169L193.598 20.8831ZM207.243 49.34L219.293 20.89L217.451 20.11L205.401 48.56L207.243 49.34ZM218.372 21.5H228.172V19.5H218.372V21.5ZM228.172 21.5C228.069 21.5 227.886 21.4718 227.71 21.3309C227.537 21.1925 227.473 21.0267 227.452 20.9425L229.392 20.4575C229.338 20.2399 229.215 19.9742 228.959 19.7691C228.7 19.5615 228.408 19.5 228.172 19.5V21.5ZM227.59 21.2547C227.557 21.2056 227.539 21.1642 227.529 21.1386C227.52 21.113 227.517 21.0974 227.516 21.0961C227.516 21.0945 227.518 21.1019 227.519 21.1205C227.521 21.1389 227.522 21.1651 227.522 21.2H229.522C229.522 20.9251 229.493 20.5035 229.254 20.1453L227.59 21.2547ZM227.522 21.2C227.522 21.2663 227.517 21.2995 227.516 21.3077C227.514 21.3181 227.519 21.2779 227.554 21.2134C227.592 21.1436 227.667 21.0408 227.799 20.9591C227.933 20.8757 228.07 20.85 228.172 20.85V22.85C228.391 22.85 228.629 22.7972 228.851 22.6596C229.071 22.5238 229.219 22.3398 229.315 22.1616C229.491 21.8352 229.522 21.4737 229.522 21.2H227.522ZM228.172 20.85H227.472V22.85H228.172V20.85ZM227.472 20.85C225.928 20.85 224.593 21.1062 223.641 21.7863L224.803 23.4137C225.251 23.0938 226.082 22.85 227.472 22.85V20.85ZM223.622 21.8C222.594 22.5712 222.222 23.8373 222.222 25.25H224.222C224.222 24.1294 224.517 23.6288 224.822 23.4L223.622 21.8ZM222.222 25.25V52.2H224.222V25.25H222.222ZM222.222 52.2C222.222 53.6509 222.614 54.9444 223.691 55.7137L224.853 54.0863C224.53 53.8556 224.222 53.3491 224.222 52.2H222.222ZM223.691 55.7137C224.64 56.3917 225.956 56.65 227.472 56.65V54.65C226.121 54.65 225.304 54.4083 224.853 54.0863L223.691 55.7137ZM227.472 56.65H228.172V54.65H227.472V56.65ZM228.172 56.65C228.07 56.65 227.933 56.6243 227.799 56.5409C227.667 56.4592 227.592 56.3564 227.554 56.2866C227.519 56.2221 227.514 56.1819 227.516 56.1923C227.517 56.2005 227.522 56.2337 227.522 56.3H229.522C229.522 56.0263 229.491 55.6648 229.315 55.3384C229.219 55.1602 229.071 54.9762 228.851 54.8404C228.629 54.7028 228.391 54.65 228.172 54.65V56.65ZM227.522 56.3C227.522 56.3777 227.517 56.4225 227.514 56.4419C227.51 56.4639 227.512 56.4342 227.54 56.3778C227.57 56.3175 227.638 56.2122 227.77 56.1242C227.909 56.032 228.055 56 228.172 56V58C228.405 58 228.654 57.9388 228.88 57.7883C229.099 57.642 229.24 57.4492 229.329 57.2722C229.492 56.9466 229.522 56.5844 229.522 56.3H227.522ZM228.172 56H213.422V58H228.172V56ZM213.422 56C213.582 56 213.757 56.052 213.905 56.1669C214.038 56.2707 214.096 56.3842 214.116 56.4311C214.136 56.4781 214.135 56.4967 214.131 56.4648C214.126 56.4362 214.122 56.3834 214.122 56.3H212.122C212.122 56.5742 212.147 56.9132 212.278 57.2189C212.348 57.3825 212.468 57.5835 212.677 57.7456C212.899 57.9188 213.162 58 213.422 58V56ZM214.122 56.3C214.122 56.2276 214.126 56.1857 214.129 56.1677C214.132 56.1466 214.131 56.1757 214.105 56.2316C214.078 56.2894 214.013 56.4027 213.876 56.5013C213.729 56.6074 213.564 56.65 213.422 56.65V54.65C213.18 54.65 212.927 54.7197 212.705 54.8799C212.494 55.0327 212.366 55.2273 212.289 55.3934C212.147 55.7005 212.122 56.0379 212.122 56.3H214.122ZM213.422 56.65H214.222V54.65H213.422V56.65ZM214.222 56.65C215.738 56.65 217.054 56.3917 218.003 55.7137L216.841 54.0863C216.39 54.4083 215.572 54.65 214.222 54.65V56.65ZM218.003 55.7137C219.08 54.9444 219.472 53.6509 219.472 52.2H217.472C217.472 53.3491 217.164 53.8556 216.841 54.0863L218.003 55.7137ZM219.472 52.2V25.2H217.472V52.2H219.472ZM217.549 24.8141L204.249 56.6141L206.094 57.3859L219.394 25.5858L217.549 24.8141ZM205.172 56H204.372V58H205.172V56ZM205.296 56.6178L192.246 25.0678L190.398 25.8322L203.448 57.3822L205.296 56.6178ZM190.322 25.45V51.5H192.322V25.45H190.322ZM190.322 51.5C190.322 52.9868 190.895 54.2584 192.008 55.2474L193.336 53.7526C192.649 53.1416 192.322 52.4132 192.322 51.5H190.322ZM192.037 55.2727C193.118 56.1603 194.319 56.65 195.622 56.65V54.65C194.858 54.65 194.093 54.373 193.307 53.7273L192.037 55.2727ZM195.622 56.65H196.322V54.65H195.622V56.65ZM196.322 56.65C196.18 56.65 196.015 56.6074 195.868 56.5013C195.731 56.4027 195.666 56.2894 195.639 56.2316C195.613 56.1757 195.612 56.1466 195.615 56.1677C195.618 56.1857 195.622 56.2276 195.622 56.3H197.622C197.622 56.0379 197.597 55.7005 197.455 55.3934C197.378 55.2273 197.25 55.0327 197.039 54.8799C196.817 54.7197 196.564 54.65 196.322 54.65V56.65ZM195.622 56.3C195.622 56.3834 195.617 56.4362 195.613 56.4648C195.609 56.4967 195.608 56.4781 195.628 56.4311C195.648 56.3842 195.706 56.2707 195.839 56.1669C195.987 56.052 196.162 56 196.322 56V58C196.582 58 196.844 57.9188 197.067 57.7456C197.276 57.5835 197.396 57.3825 197.466 57.2189C197.597 56.9132 197.622 56.5742 197.622 56.3H195.622ZM196.322 56H184.372V58H196.322V56Z" fill="#FAF9FA" fill-opacity="0.86" mask="url(#path-1-inside-1_246_170)"/>
</g>
<defs>
<filter id="filter0_dd_246_170" x="0.0316391" y="0.449951" width="251.49" height="76.55" filterUnits="userSpaceOnUse" color-interpolation-filters="sRGB">
<feFlood flood-opacity="0" result="BackgroundImageFix"/>
<feColorMatrix in="SourceAlpha" type="matrix" values="0 0 0 0 0 0 0 0 0 0 0 0 0 0 0 0 0 0 127 0" result="hardAlpha"/>
<feOffset dx="-3"/>
<feGaussianBlur stdDeviation="10"/>
<feComposite in2="hardAlpha" operator="out"/>
<feColorMatrix type="matrix" values="0 0 0 0 0.254902 0 0 0 0 0.152941 0 0 0 0 0.4 0 0 0 1 0"/>
<feBlend mode="normal" in2="BackgroundImageFix" result="effect1_dropShadow_246_170"/>
<feColorMatrix in="SourceAlpha" type="matrix" values="0 0 0 0 0 0 0 0 0 0 0 0 0 0 0 0 0 0 127 0" result="hardAlpha"/>
<feOffset dx="3"/>
<feGaussianBlur stdDeviation="10"/>
<feComposite in2="hardAlpha" operator="out"/>
<feColorMatrix type="matrix" values="0 0 0 0 0.255659 0 0 0 0 0.153902 0 0 0 0 0.398119 0 0 0 1 0"/>
<feBlend mode="normal" in2="effect1_dropShadow_246_170" result="effect2_dropShadow_246_170"/>
<feBlend mode="normal" in="SourceGraphic" in2="effect2_dropShadow_246_170" result="shape"/>
</filter>
</defs>
</svg>
