<svg width="18" height="16" viewBox="0 0 18 16" fill="none" xmlns="http://www.w3.org/2000/svg">
<rect width="18" height="16" fill="#EEC77C"/>
<path d="M4.16193 14.0625C3.98958 14.0625 3.84186 14.0019 3.71875 13.8807C3.59564 13.7595 3.53504 13.6117 3.53693 13.4375C3.53504 13.267 3.59564 13.1212 3.71875 13C3.84186 12.8788 3.98958 12.8182 4.16193 12.8182C4.3286 12.8182 4.47348 12.8788 4.59659 13C4.72159 13.1212 4.78504 13.267 4.78693 13.4375C4.78504 13.553 4.75473 13.6581 4.69602 13.7528C4.6392 13.8475 4.56345 13.9233 4.46875 13.9801C4.37595 14.035 4.27367 14.0625 4.16193 14.0625ZM8.82963 8.18182H9.87509V12.2727C9.87319 12.6477 9.79365 12.9706 9.63645 13.2415C9.47925 13.5104 9.25955 13.7178 8.97736 13.8636C8.69705 14.0076 8.37035 14.0795 7.99724 14.0795C7.65634 14.0795 7.34952 14.0189 7.07679 13.8977C6.80596 13.7746 6.59099 13.5928 6.4319 13.3523C6.27281 13.1117 6.19327 12.8125 6.19327 12.4545H7.24156C7.24346 12.6117 7.27755 12.7472 7.34384 12.8608C7.41202 12.9744 7.50577 13.0616 7.62509 13.1222C7.7444 13.1828 7.88171 13.2131 8.03702 13.2131C8.20558 13.2131 8.34857 13.178 8.46599 13.108C8.58342 13.036 8.67243 12.9299 8.73304 12.7898C8.79554 12.6496 8.82774 12.4773 8.82963 12.2727V8.18182ZM14.8205 9.78125C14.794 9.53314 14.6822 9.33996 14.4853 9.2017C14.2902 9.06345 14.0364 8.99432 13.7239 8.99432C13.5042 8.99432 13.3157 9.02746 13.1586 9.09375C13.0014 9.16004 12.8811 9.25 12.7978 9.36364C12.7144 9.47727 12.6718 9.60701 12.6699 9.75284C12.6699 9.87405 12.6974 9.97917 12.7523 10.0682C12.8091 10.1572 12.8858 10.233 12.9824 10.2955C13.079 10.3561 13.186 10.4072 13.3034 10.4489C13.4209 10.4905 13.5392 10.5256 13.6586 10.554L14.204 10.6903C14.4237 10.7415 14.6349 10.8106 14.8375 10.8977C15.0421 10.9848 15.2248 11.0947 15.3858 11.2273C15.5487 11.3598 15.6775 11.5199 15.7722 11.7074C15.8669 11.8949 15.9142 12.1146 15.9142 12.3665C15.9142 12.7074 15.8271 13.0076 15.6529 13.267C15.4786 13.5246 15.2267 13.7263 14.8972 13.8722C14.5695 14.0161 14.1728 14.0881 13.7068 14.0881C13.2542 14.0881 12.8612 14.018 12.5279 13.8778C12.1964 13.7377 11.937 13.5331 11.7495 13.2642C11.5639 12.9953 11.4635 12.6676 11.4483 12.2812H12.4853C12.5004 12.4839 12.5629 12.6525 12.6728 12.7869C12.7826 12.9214 12.9256 13.0218 13.1017 13.0881C13.2798 13.1544 13.4786 13.1875 13.6983 13.1875C13.9275 13.1875 14.1282 13.1534 14.3006 13.0852C14.4748 13.0152 14.6112 12.9186 14.7097 12.7955C14.8082 12.6705 14.8584 12.5246 14.8603 12.358C14.8584 12.2064 14.8139 12.0814 14.7267 11.983C14.6396 11.8826 14.5175 11.7992 14.3603 11.733C14.205 11.6648 14.0231 11.6042 13.8148 11.5511L13.1529 11.3807C12.6737 11.2576 12.2949 11.071 12.0165 10.821C11.74 10.5691 11.6017 10.2348 11.6017 9.81818C11.6017 9.47538 11.6945 9.17519 11.8801 8.91761C12.0676 8.66004 12.3224 8.46023 12.6443 8.31818C12.9663 8.17424 13.3309 8.10227 13.7381 8.10227C14.151 8.10227 14.5127 8.17424 14.8233 8.31818C15.1358 8.46023 15.3811 8.65814 15.5591 8.91193C15.7371 9.16383 15.829 9.4536 15.8347 9.78125H14.8205Z" fill="#F9F9FA"/>
</svg>
