<svg width="17" height="18" viewBox="0 0 17 18" fill="none" xmlns="http://www.w3.org/2000/svg">
<path d="M6.43986 8.67878H10.5354C11.6755 8.67878 12.5858 7.6961 12.5858 6.49646V2.40739C12.5858 1.24339 11.6483 0.369193 10.5354 0.175192C9.83074 0.0524564 9.10039 -0.00376408 8.39954 0.000195131C7.69868 0.00415434 7.02882 0.0659177 6.43986 0.175192C4.70473 0.495888 4.38946 1.16816 4.38946 2.40739V4.04413H8.48951V4.58971H2.85015C1.65861 4.58971 0.615268 5.33958 0.288655 6.76727C-0.0878569 8.40322 -0.10449 9.4239 0.288655 11.1319C0.579733 12.4036 1.27605 13.3095 2.46759 13.3095H3.87761V11.3473C3.87761 9.92989 5.04873 8.67957 6.43911 8.67957L6.43986 8.67878ZM6.18129 2.95297C5.75639 2.95297 5.41164 2.58793 5.41164 2.13738C5.41164 1.68444 5.75564 1.31624 6.18129 1.31624C6.60468 1.31624 6.95095 1.68444 6.95095 2.13738C6.95095 2.58872 6.60544 2.95297 6.18129 2.95297ZM16.6851 6.76648C16.391 5.52408 15.8285 4.58892 14.6347 4.58892H13.0961V6.49567C13.0961 7.97404 11.8993 9.21881 10.5346 9.21881H6.43911C5.31713 9.21881 4.3887 10.2245 4.3887 11.4011V15.4902C4.3887 16.6542 5.35493 17.3384 6.43911 17.6725C7.73724 18.0724 8.9817 18.1444 10.5346 17.6725C11.5666 17.3597 12.585 16.7294 12.585 15.4902V13.8535H8.48951V13.3079H14.6354C15.827 13.3079 16.2708 12.4376 16.6858 11.1303C17.1137 9.78498 17.0956 8.4919 16.6858 6.76569L16.6851 6.76648ZM10.7932 14.9454C11.2181 14.9454 11.5628 15.3104 11.5628 15.761C11.5628 16.2139 11.2181 16.5821 10.7932 16.5821C10.3698 16.5821 10.0235 16.2139 10.0235 15.761C10.0235 15.3097 10.369 14.9454 10.7932 14.9454Z" fill="#EEC77C" fill-opacity="0.82"/>
</svg>
