<svg width="21" height="16" viewBox="0 0 21 16" fill="none" xmlns="http://www.w3.org/2000/svg">
<path d="M1.58396 1.88471C1.66295 1.88471 1.74075 1.85263 1.79649 1.79649C1.85263 1.74075 1.88471 1.66295 1.88471 1.58396C1.88471 1.50496 1.85263 1.42716 1.79649 1.37142C1.74075 1.31528 1.66295 1.2832 1.58396 1.2832C1.50456 1.2832 1.42716 1.31528 1.37142 1.37142C1.31528 1.42716 1.2832 1.50496 1.2832 1.58396C1.2832 1.66295 1.31528 1.74075 1.37142 1.79649C1.42716 1.85263 1.50496 1.88471 1.58396 1.88471Z" fill="#EEC77C" fill-opacity="0.7"/>
<path d="M2.54636 1.88471C2.62576 1.88471 2.70315 1.85263 2.75889 1.79649C2.81503 1.74075 2.84711 1.66295 2.84711 1.58396C2.84711 1.50496 2.81503 1.42716 2.75889 1.37142C2.70315 1.31528 2.62576 1.2832 2.54636 1.2832C2.46736 1.2832 2.38957 1.31528 2.33383 1.37142C2.27769 1.42716 2.24561 1.50496 2.24561 1.58396C2.24561 1.66295 2.27769 1.74075 2.33383 1.79649C2.38957 1.85263 2.46736 1.88471 2.54636 1.88471Z" fill="#EEC77C" fill-opacity="0.7"/>
<path d="M3.50879 1.88471C3.58779 1.88471 3.66558 1.85263 3.72132 1.79649C3.77746 1.74075 3.80954 1.66295 3.80954 1.58396C3.80954 1.50496 3.77746 1.42716 3.72132 1.37142C3.66558 1.31528 3.58779 1.2832 3.50879 1.2832C3.42979 1.2832 3.352 1.31528 3.29626 1.37142C3.24012 1.42716 3.20804 1.50496 3.20804 1.58396C3.20804 1.66295 3.24012 1.74075 3.29626 1.79649C3.352 1.85263 3.42979 1.88471 3.50879 1.88471Z" fill="#EEC77C" fill-opacity="0.7"/>
<path d="M8.85426 6.18337C8.7368 6.06591 8.54637 6.06591 8.42895 6.18337L5.54173 9.07058C5.42428 9.18804 5.42428 9.37843 5.54173 9.49589L8.42895 12.3831C8.48766 12.4418 8.56465 12.4712 8.6416 12.4712C8.71856 12.4712 8.79555 12.4419 8.85426 12.3831C8.97171 12.2657 8.97171 12.0753 8.85426 11.9578L6.17969 9.28324L8.85426 6.60867C8.97171 6.49122 8.97171 6.30082 8.85426 6.18337Z" fill="#EEC77C" fill-opacity="0.7"/>
<path d="M11.8496 11.8697C11.7706 11.8697 11.6928 11.9018 11.6371 11.9579C11.5809 12.0137 11.5489 12.0914 11.5489 12.1704C11.5489 12.2494 11.5809 12.3272 11.6371 12.383C11.6928 12.4391 11.7706 12.4712 11.8496 12.4712C11.9286 12.4712 12.0064 12.4391 12.0621 12.383C12.1183 12.3272 12.1504 12.2494 12.1504 12.1704C12.1504 12.0914 12.1183 12.0137 12.0621 11.9579C12.0064 11.9018 11.9286 11.8697 11.8496 11.8697Z" fill="#EEC77C" fill-opacity="0.7"/>
<path d="M11.8496 6.09528C10.6224 6.09528 9.62405 7.09365 9.62405 8.32084C9.62405 8.48694 9.75871 8.62159 9.92481 8.62159C10.0909 8.62159 10.2256 8.48694 10.2256 8.32084C10.2256 7.42532 10.9541 6.69678 11.8496 6.69678C12.7451 6.69678 13.4737 7.42532 13.4737 8.32084C13.4737 9.21636 12.7451 9.9449 11.8496 9.9449C11.6835 9.9449 11.5489 10.0796 11.5489 10.2457V10.8873C11.5489 11.0534 11.6835 11.188 11.8496 11.188C12.0157 11.188 12.1504 11.0534 12.1504 10.8873V10.5262C13.2359 10.3789 14.0752 9.44605 14.0752 8.32084C14.0752 7.09365 13.0768 6.09528 11.8496 6.09528Z" fill="#EEC77C" fill-opacity="0.7"/>
<path d="M4.79199 1.88471H16.9825C17.1486 1.88471 17.2832 1.75005 17.2832 1.58396C17.2832 1.41786 17.1486 1.2832 16.9825 1.2832H4.79199C4.6259 1.2832 4.49124 1.41786 4.49124 1.58396C4.49124 1.75005 4.6259 1.88471 4.79199 1.88471Z" fill="#EEC77C" fill-opacity="0.7"/>
<path d="M18.2657 1.88471H18.9073C19.0734 1.88471 19.208 1.75005 19.208 1.58396C19.208 1.41786 19.0734 1.2832 18.9073 1.2832H18.2657C18.0996 1.2832 17.9649 1.41786 17.9649 1.58396C17.9649 1.75005 18.0996 1.88471 18.2657 1.88471Z" fill="#EEC77C" fill-opacity="0.7"/>
<path d="M18.9073 0H1.58396C0.710576 0 0 0.710576 0 1.58396V14.416C0 15.2894 0.710576 16 1.58396 16H18.9073C19.7807 16 20.4912 15.2894 20.4912 14.416V1.58396C20.4912 0.710576 19.7807 0 18.9073 0ZM1.58396 0.601504H18.9073C19.449 0.601504 19.8897 1.04225 19.8897 1.58396V2.56642H0.601504V1.58396C0.601504 1.04225 1.04225 0.601504 1.58396 0.601504ZM18.9073 15.3985H1.58396C1.04225 15.3985 0.601504 14.9578 0.601504 14.416V3.16792H19.8897V14.416C19.8897 14.9578 19.449 15.3985 18.9073 15.3985Z" fill="#EEC77C" fill-opacity="0.7"/>
</svg>
