<svg width="17" height="18" viewBox="0 0 17 18" fill="none" xmlns="http://www.w3.org/2000/svg">
<path d="M8.63159 6.63159C13.0766 6.63159 16.6805 5.67826 16.6842 4.50186V15.8684C16.6842 17.0457 13.0789 18 8.63159 18V14.2853L8.66357 14.2863L9.21422 14.8802C9.39105 15.0645 9.57285 15.225 9.75958 15.3616C9.94626 15.4982 10.1415 15.6057 10.3451 15.6843C10.5488 15.7628 10.7718 15.8021 11.0142 15.8021L11.5246 15.7696L11.8526 15.705V14.7245L11.7307 14.763L11.5921 14.7926L11.4494 14.8109L11.3197 14.8169L10.9165 14.7861L10.5554 14.6754L10.206 14.4575L9.83949 14.1051C10.3534 13.9212 10.7541 13.6042 11.0415 13.1542C11.3296 12.6995 11.4737 12.1563 11.4737 11.5248C11.4737 10.7163 11.238 10.0662 10.7667 9.57436C10.2978 9.07779 9.68473 8.82949 8.92764 8.82949L8.63159 8.84147V6.63159ZM15.2632 2.13159H16.6842V3.07896C16.6842 4.25621 13.0789 5.21054 8.63159 5.21054V2.84212C12.2941 2.84212 15.2632 2.52404 15.2632 2.13159ZM8.8862 9.89054C9.29356 9.89054 9.61212 10.0417 9.84186 10.3441C10.0708 10.6417 10.1853 11.0558 10.1853 11.5863C10.1853 12.0979 10.0657 12.5002 9.82646 12.793C9.59042 13.0812 9.26713 13.2253 8.85659 13.2253L8.63159 13.2081V9.9119L8.8862 9.89054ZM15.4905 14.2105V13.2253H13.52V8.90528H12.3074V14.2105H15.4905Z" fill="#EEC77C" fill-opacity="0.7"/>
<path d="M8.63158 18C4.18421 18 0.578949 17.0457 0.578949 15.8684V4.5C0.578949 5.67725 4.18425 6.63158 8.63158 6.63158V8.83118C7.9499 8.8858 7.39413 9.14021 6.96421 9.59443C6.47788 10.1084 6.23474 10.7842 6.23474 11.6218C6.23474 11.9881 6.29234 12.3311 6.40763 12.6509C6.52288 12.9706 6.68611 13.2491 6.89728 13.4864C7.1085 13.7236 7.36286 13.9122 7.66053 14.0524C7.95203 14.1896 8.2757 14.2642 8.63158 14.2761V18ZM16.6842 2.13158H15.2632C15.2632 1.73918 12.2941 1.42105 8.63158 1.42105C4.96905 1.42105 2 1.73918 2 2.13158C2 2.52403 4.96905 2.84211 8.63158 2.84211V5.21053C4.18421 5.21053 0.578949 4.25619 0.578949 3.07895V2.13158C0.578949 0.954379 4.18425 0 8.63158 0C13.0766 0 16.6805 0.953384 16.6842 2.13158ZM2.06632 13.989C2.25972 14.0846 2.48846 14.1564 2.75254 14.2046C3.01662 14.2527 3.2951 14.2768 3.58803 14.2768C3.873 14.2768 4.1438 14.2498 4.4004 14.1957C4.65694 14.1416 4.88194 14.0526 5.0754 13.9286C5.2688 13.8047 5.42194 13.6429 5.53487 13.4431C5.64775 13.2434 5.70421 12.9963 5.70421 12.7018C5.70421 12.4886 5.67262 12.3018 5.60948 12.1411C5.54629 11.9804 5.4551 11.8376 5.33592 11.7124C5.2167 11.5873 5.07379 11.475 4.90724 11.3755L4.34355 11.0936L3.93145 10.9083L3.62119 10.7242L3.42399 10.5258C3.37781 10.456 3.35474 10.3768 3.35474 10.2884C3.35474 10.2039 3.37544 10.1276 3.41689 10.0593L3.59215 9.88337L3.86987 9.76969L4.23461 9.72943L4.54369 9.75193L4.87053 9.8218L5.19026 9.9414L5.47684 10.1084V9.02008C5.29684 8.95221 5.10003 8.9019 4.88649 8.86912L4.15171 8.81995C3.86987 8.81995 3.603 8.84998 3.35119 8.90995C3.09933 8.96997 2.87769 9.0639 2.68623 9.19179C2.49476 9.31969 2.34361 9.48235 2.23267 9.67969C2.12174 9.87707 2.06632 10.1131 2.06632 10.3878C2.06632 10.7384 2.16655 11.0376 2.36711 11.2855C2.56762 11.5334 2.87234 11.743 3.28132 11.9143L3.72952 12.1097L4.08895 12.3086L4.32816 12.5331C4.38657 12.614 4.41579 12.7058 4.41579 12.8084L4.3607 13.0298C4.32399 13.0977 4.26814 13.1568 4.19316 13.2069L3.91307 13.3247L3.52053 13.3673C3.2655 13.3673 3.01288 13.3231 2.76263 13.2347C2.51234 13.1463 2.28023 13.0137 2.06632 12.8368V13.989ZM7.88908 10.3417C8.08443 10.0981 8.33193 9.95111 8.63158 9.90076V13.2C8.33235 13.1546 8.08367 13.0111 7.88553 12.7693C7.64395 12.4693 7.52316 12.0647 7.52316 11.5555C7.52316 11.051 7.64513 10.6464 7.88908 10.3417Z" fill="#EEC77C"/>
</svg>
