<svg width="14" height="19" viewBox="0 0 14 19" fill="none" xmlns="http://www.w3.org/2000/svg">
<path d="M7.00002 0.666687H4.08335C3.30981 0.666687 2.56794 0.973978 2.02096 1.52096C1.47398 2.06794 1.16669 2.80981 1.16669 3.58335C1.16669 4.3569 1.47398 5.09877 2.02096 5.64575C2.56794 6.19273 3.30981 6.50002 4.08335 6.50002M7.00002 0.666687V6.50002M7.00002 0.666687H9.91669C10.2997 0.666687 10.679 0.742129 11.0328 0.888705C11.3867 1.03528 11.7082 1.25012 11.9791 1.52096C12.2499 1.7918 12.4648 2.11333 12.6113 2.46719C12.7579 2.82106 12.8334 3.20033 12.8334 3.58335C12.8334 3.96638 12.7579 4.34565 12.6113 4.69951C12.4648 5.05338 12.2499 5.37491 11.9791 5.64575C11.7082 5.91659 11.3867 6.13143 11.0328 6.278C10.679 6.42458 10.2997 6.50002 9.91669 6.50002M7.00002 6.50002H4.08335M7.00002 6.50002H9.91669M7.00002 6.50002V12.3334M4.08335 6.50002C3.30981 6.50002 2.56794 6.80731 2.02096 7.35429C1.47398 7.90127 1.16669 8.64314 1.16669 9.41669C1.16669 10.1902 1.47398 10.9321 2.02096 11.4791C2.56794 12.0261 3.30981 12.3334 4.08335 12.3334M9.91669 6.50002C9.53366 6.50002 9.15439 6.57546 8.80053 6.72204C8.44666 6.86861 8.12513 7.08345 7.85429 7.35429C7.58345 7.62513 7.36861 7.94666 7.22204 8.30053C7.07546 8.65439 7.00002 9.03366 7.00002 9.41669C7.00002 9.79971 7.07546 10.179 7.22204 10.5328C7.36861 10.8867 7.58345 11.2082 7.85429 11.4791C8.12513 11.7499 8.44666 11.9648 8.80053 12.1113C9.15439 12.2579 9.53366 12.3334 9.91669 12.3334C10.2997 12.3334 10.679 12.2579 11.0328 12.1113C11.3867 11.9648 11.7082 11.7499 11.9791 11.4791C12.2499 11.2082 12.4648 10.8867 12.6113 10.5328C12.7579 10.179 12.8334 9.79971 12.8334 9.41669C12.8334 9.03366 12.7579 8.65439 12.6113 8.30053C12.4648 7.94666 12.2499 7.62513 11.9791 7.35429C11.7082 7.08345 11.3867 6.86861 11.0328 6.72204C10.679 6.57546 10.2997 6.50002 9.91669 6.50002ZM4.08335 12.3334C3.30981 12.3334 2.56794 12.6406 2.02096 13.1876C1.47398 13.7346 1.16669 14.4765 1.16669 15.25C1.16669 16.0236 1.47398 16.7654 2.02096 17.3124C2.56794 17.8594 3.30981 18.1667 4.08335 18.1667C4.8569 18.1667 5.59877 17.8594 6.14575 17.3124C6.69273 16.7654 7.00002 16.0236 7.00002 15.25V12.3334M4.08335 12.3334H7.00002" stroke="#EEC77C" stroke-linecap="round" stroke-linejoin="round"/>
</svg>
