<svg width="18" height="16" viewBox="0 0 18 16" fill="none" xmlns="http://www.w3.org/2000/svg">
<path d="M3.46154 5.4V2.31429C3.46154 1.88923 3.77169 1.54286 4.15385 1.54286C4.53669 1.54286 4.84615 1.19726 4.84615 0.771429C4.84615 0.3456 4.53669 0 4.15385 0C3.00877 0 2.07692 1.03834 2.07692 2.31429V5.4C2.07692 6.25089 1.45592 6.94286 0.692308 6.94286C0.309462 6.94286 0 7.28846 0 7.71429C0 8.14011 0.309462 8.48571 0.692308 8.48571C1.45592 8.48571 2.07692 9.17769 2.07692 10.0286V13.1143C2.07692 14.3902 3.00877 15.4286 4.15385 15.4286C4.53669 15.4286 4.84615 15.083 4.84615 14.6571C4.84615 14.2313 4.53669 13.8857 4.15385 13.8857C3.77169 13.8857 3.46154 13.5393 3.46154 13.1143V10.0286C3.46154 9.10286 3.08631 8.28051 2.50477 7.71429C3.08631 7.14806 3.46154 6.32571 3.46154 5.4Z" fill="#EEC77C"/>
<path d="M17.3077 6.94286C16.5441 6.94286 15.9231 6.25089 15.9231 5.4V2.31429C15.9231 1.03834 14.9913 0 13.8462 0C13.4633 0 13.1539 0.3456 13.1539 0.771429C13.1539 1.19726 13.4633 1.54286 13.8462 1.54286C14.2283 1.54286 14.5385 1.88923 14.5385 2.31429V5.4C14.5385 6.32571 14.9137 7.14806 15.4953 7.71429C14.9137 8.28051 14.5385 9.10286 14.5385 10.0286V13.1143C14.5385 13.5393 14.2283 13.8857 13.8462 13.8857C13.4633 13.8857 13.1539 14.2313 13.1539 14.6571C13.1539 15.083 13.4633 15.4286 13.8462 15.4286C14.9913 15.4286 15.9231 14.3902 15.9231 13.1143V10.0286C15.9231 9.17769 16.5441 8.48571 17.3077 8.48571C17.6906 8.48571 18 8.14011 18 7.71429C18 7.28846 17.6906 6.94286 17.3077 6.94286Z" fill="#EEC77C"/>
</svg>
